<svg class="" data-container="esbd-tb-driftdiff-conc" viewBox="0 0 440 110" preserveAspectRatio="xMidYMid meet" style="width: 100%; height: auto; position: static; user-select: none; -webkit-tap-highlight-color: transparent;"><g transform="translate(60,4)"><g class="xy-axes"><g class="xy-x-axis" transform="translate(0,94)" fill="none" font-size="10" font-family="sans-serif" text-anchor="middle"><path class="domain" stroke="#aaa" d="M0.5,4V0.5H324.5V4"></path></g><g class="xy-y-axis" fill="none" font-size="10" font-family="sans-serif" text-anchor="end"><path class="domain" stroke="#aaa" d="M324,94.5H0.5V0.5H324"></path></g><foreignObject class="rp-y-axis-label rp-label-foreign-object" width="1" height="1" style="overflow: visible;" x="-36.5" y="0" transform="translate(-56, 47) rotate(-90)"><span class="rp-label-span" style="display: inline-block; white-space: nowrap;" data-rendered-label="Concentration" data-rendered-mode="text">Concentration</span></foreignObject></g><g><path class="xy-trace" d="M0,42.3L5.4,42.515L10.8,42.729L16.2,42.942L21.6,43.155L27,43.366L32.4,43.576L37.8,43.786L43.2,43.995L48.6,44.203L54,44.41L59.4,44.616L64.8,44.821L70.2,45.026L75.6,45.23L81,45.432L86.4,45.634L91.8,45.835L97.2,46.036L102.6,46.235L108,46.434L113.4,46.631L118.8,46.828L124.2,47.025L129.6,47.22L135,47.414L140.4,47.608L145.8,47.801L151.2,47.993L156.6,48.184L162,48.375L167.4,48.565L172.8,48.754L178.2,48.942L183.6,49.129L189,49.316L194.4,49.501L199.8,49.686L205.2,49.871L210.6,50.054L216,50.237L221.4,50.419L226.8,50.6L232.2,50.781L237.6,50.96L243,51.139L248.4,51.317L253.8,51.495L259.2,51.672L264.6,51.848L270,52.023L275.4,52.197L280.8,52.371L286.2,52.544L291.6,52.717L297,52.888L302.4,53.059L307.8,53.23L313.2,53.399L318.6,53.568L324,53.736" stroke="#d87E37" stroke-width="2" stroke-opacity="1" fill="none"></path></g><g></g><g style="pointer-events: none;"><foreignObject class="xy-trace-label rp-label-foreign-object" width="1" height="1" style="overflow: visible;" x="0" y="-9" transform="translate(319.28, 53.432827953874046)"><span class="rp-label-span" style="display: inline-block; white-space: nowrap; color: rgb(216, 126, 55);" data-rendered-label="c_{\mathrm{Na}^+}" data-rendered-mode="math"><span class="katex"><span class="katex-mathml"><math xmlns="http://www.w3.org/1998/Math/MathML"><semantics><mrow><msub><mi>c</mi><msup><mrow><mi mathvariant="normal">N</mi><mi mathvariant="normal">a</mi></mrow><mo>+</mo></msup></msub></mrow><annotation encoding="application/x-tex">c_{\mathrm{Na}^+}</annotation></semantics></math></span><span class="katex-html" aria-hidden="true"><span class="base"><span class="strut" style="height: 0.6088em; vertical-align: -0.1782em;"></span><span class="mord"><span class="mord mathnormal">c</span><span class="msupsub"><span class="vlist-t vlist-t2"><span class="vlist-r"><span class="vlist" style="height: 0.3448em;"><span class="" style="top: -2.5218em; margin-left: 0em; margin-right: 0.05em;"><span class="pstrut" style="height: 2.7em;"></span><span class="sizing reset-size6 size3 mtight"><span class="mord mtight"><span class="mord mtight"><span class="mord mtight"><span class="mord mathrm mtight">Na</span></span><span class="msupsub"><span class="vlist-t"><span class="vlist-r"><span class="vlist" style="height: 0.7471em;"><span class="" style="top: -2.8305em; margin-right: 0.0714em;"><span class="pstrut" style="height: 2.5em;"></span><span class="sizing reset-size3 size1 mtight"><span class="mbin mtight">+</span></span></span></span></span></span></span></span></span></span></span></span><span class="vlist-s">​</span></span><span class="vlist-r"><span class="vlist" style="height: 0.1782em;"><span class=""></span></span></span></span></span></span></span></span></span></span></foreignObject></g></g></svg>
