<svg class="" data-container="esbd-ss-quasifermi-container" viewBox="0 0 460 280" preserveAspectRatio="xMidYMid meet" style="width: 100%; height: auto; position: static; user-select: none; -webkit-tap-highlight-color: transparent;"><g transform="translate(60,5)"><g class="bd-region-backgrounds" style="pointer-events: none;"><rect class="bd-region-bg" x="0" y="0" width="49.5" height="255" fill="#E0E0E0"></rect><rect class="bd-region-bg" x="49.5" y="0" width="231" height="255" fill="#d2d8e0"></rect><rect class="bd-region-bg" x="280.5" y="0" width="49.5" height="255" fill="#E0E0E0"></rect></g><g class="bd-region-interfaces" style="pointer-events: none;"><line class="bd-region-line" y1="0" stroke="rgba(128,128,128,0.7)" stroke-width="1" stroke-dasharray="1,1" x1="49.5" x2="49.5" y2="255"></line><line class="bd-region-line" y1="0" stroke="rgba(128,128,128,0.7)" stroke-width="1" stroke-dasharray="1,1" x1="280.5" x2="280.5" y2="255"></line></g><g class="bd-region-labels" style="pointer-events: none;"><text class="bd-region-label" x="24.75" y="257" dx="0" dy="+0.8em" text-anchor="middle">Metal</text><text class="bd-region-label" x="165" y="257" dx="0" dy="+0.8em" text-anchor="middle">Semiconductor</text><text class="bd-region-label" x="305.25" y="257" dx="0" dy="+0.8em" text-anchor="middle">Metal</text></g><defs></defs><g class="bd-hatches" style="pointer-events: none;"></g><g class="bd-lines"><path class="bd-data-line" fill="none" stroke="#377EB8" stroke-width="3" d="M0,76.5L49.5,76.5"></path><path class="bd-data-line" fill="none" stroke="#E4571A" stroke-width="3" d="M49.5,76.5L53.35,78.825L57.2,81.045L61.05,83.163L64.9,85.184L68.75,87.114L72.6,88.955L76.45,90.712L80.3,92.39L84.15,93.991L88,95.518L91.85,96.977L95.7,98.368L99.55,99.697L103.4,100.964L107.25,102.174L111.1,103.329L114.95,104.431L118.8,105.483L122.65,106.487L126.5,107.445L130.35,108.359L134.2,109.232L138.05,110.065L141.9,110.86L145.75,111.618L149.6,112.343L153.45,113.034L157.3,113.693L161.15,114.323L165,114.924L168.85,115.497L172.7,116.044L176.55,116.567L180.4,117.065L184.25,117.541L188.1,117.995L191.95,118.428L195.8,118.842L199.65,119.237L203.5,119.613L207.35,119.973L211.2,120.316L215.05,120.644L218.9,120.956L222.75,121.255L226.6,121.539L230.45,121.811L234.3,122.071L238.15,122.318L242,122.554L245.85,122.78L249.7,122.995L253.55,123.201L257.4,123.397L261.25,123.584L265.1,123.762L268.95,123.933L272.8,124.095L276.65,124.251L280.5,124.399"></path><path class="bd-data-line" fill="none" stroke="#377EB8" stroke-width="3" d="M49.5,130.601L53.396,130.751L57.292,130.908L61.188,131.073L65.083,131.246L68.979,131.427L72.875,131.617L76.771,131.816L80.667,132.025L84.562,132.244L88.458,132.473L92.354,132.714L96.25,132.966L100.146,133.23L104.042,133.507L107.937,133.798L111.833,134.102L115.729,134.421L119.625,134.756L123.521,135.107L127.417,135.475L131.313,135.86L135.208,136.265L139.104,136.688L143,137.133L146.896,137.598L150.792,138.087L154.688,138.599L158.583,139.135L162.479,139.698L166.375,140.288L170.271,140.906L174.167,141.554L178.063,142.234L181.958,142.946L185.854,143.693L189.75,144.476L193.646,145.297L197.542,146.158L201.437,147.06L205.333,148.006L209.229,148.998L213.125,150.037L217.021,151.127L220.917,152.269L224.813,153.467L228.708,154.723L232.604,156.039L236.5,157.419L240.396,158.866L244.292,160.382L248.188,161.972L252.083,163.639L255.979,165.387L259.875,167.219L263.771,169.139L267.667,171.153L271.563,173.264L275.458,175.477L279.354,177.797L283.25,178.5L287.146,178.5L291.042,178.5L294.938,178.5L298.833,178.5L302.729,178.5L306.625,178.5L310.521,178.5L314.417,178.5L318.313,178.5L322.208,178.5L326.104,178.5L330,178.5"></path></g><rect class="bd-interaction-overlay" width="330" height="255" style="fill: none; pointer-events: all;"></rect><g class="bd-vertical-markers" style="pointer-events: all;"><g class="bd-marker" transform="translate(115.49999999999999, 0)"><line class="bd-marker-line" stroke="#666" stroke-width="2" x1="0" x2="0" y1="134.40209944506725" y2="104.5842228300217"></line><g class="bd-marker-legs"><circle class="bd-marker-leg-dot" r="3" stroke-width="0" fill="#666" cx="0" cy="104.5842228300217"></circle><circle class="bd-marker-leg-dot" r="3" stroke-width="0" fill="#666" cx="0" cy="134.40209944506725"></circle></g><g class="bd-marker-symbol" transform="translate(0,119.49316113754448)"><circle class="bd-marker-bg" r="8" fill="rgba(255, 255, 255, 0.7)" stroke="#AAA" stroke-width="1" style="cursor: help;"></circle><text text-anchor="middle" dominant-baseline="central" font-size="14px" fill="#333" style="pointer-events: none;">Ω</text></g></g><g class="bd-marker" transform="translate(165, 0)"><line class="bd-marker-line" stroke="#666" stroke-width="2" x1="0" x2="0" y1="140.07644516102192" y2="114.92355483897806"></line><g class="bd-marker-legs"><circle class="bd-marker-leg-dot" r="3" stroke-width="0" fill="#666" cx="0" cy="114.92355483897806"></circle><circle class="bd-marker-leg-dot" r="3" stroke-width="0" fill="#666" cx="0" cy="140.07644516102192"></circle></g><g class="bd-marker-symbol" transform="translate(0,127.5)"><circle class="bd-marker-bg" r="8" fill="rgba(255, 255, 255, 0.7)" stroke="#AAA" stroke-width="1" style="cursor: help;"></circle><text text-anchor="middle" dominant-baseline="central" font-size="14px" fill="#333" style="pointer-events: none;">Ω</text></g></g><g class="bd-marker" transform="translate(214.5, 0)"><line class="bd-marker-line" stroke="#666" stroke-width="2" x1="0" x2="0" y1="150.4157771699783" y2="120.59790055493275"></line><g class="bd-marker-legs"><circle class="bd-marker-leg-dot" r="3" stroke-width="0" fill="#666" cx="0" cy="120.59790055493275"></circle><circle class="bd-marker-leg-dot" r="3" stroke-width="0" fill="#666" cx="0" cy="150.4157771699783"></circle></g><g class="bd-marker-symbol" transform="translate(0,135.5068388624555)"><circle class="bd-marker-bg" r="8" fill="rgba(255, 255, 255, 0.7)" stroke="#AAA" stroke-width="1" style="cursor: help;"></circle><text text-anchor="middle" dominant-baseline="central" font-size="14px" fill="#333" style="pointer-events: none;">Ω</text></g></g><g class="bd-marker" transform="translate(49.5, 0)"><line class="bd-marker-line" stroke="#666" stroke-width="2" x1="0" x2="0" y1="76.50000000000001" y2="76.50000000000001"></line><g class="bd-marker-legs"><circle class="bd-marker-leg-dot" r="3" stroke-width="0" fill="#666" cx="0" cy="76.50000000000001"></circle></g><g class="bd-marker-symbol" transform="translate(0,76.50000000000001)"><circle class="bd-marker-bg" r="8" fill="rgba(255, 255, 255, 0.7)" stroke="#AAA" stroke-width="1" style="cursor: help;"></circle><text text-anchor="middle" dominant-baseline="central" font-size="14px" fill="#333" style="pointer-events: none;">⇌</text></g></g></g><g class="bd-trace-labels" style="pointer-events: none;"><foreignObject class="bd-line-label rp-label-foreign-object" width="1" height="1" style="overflow: visible;" x="0" y="-9" transform="translate(22.325, 76.50000000000001)"><span class="rp-label-span" style="display: inline-block; white-space: nowrap; color: rgb(55, 126, 184);" data-rendered-label="V_{\mathrm{e}^{-}}" data-rendered-mode="math"><span class="katex"><span class="katex-mathml"><math xmlns="http://www.w3.org/1998/Math/MathML"><semantics><mrow><msub><mi>V</mi><msup><mi mathvariant="normal">e</mi><mo lspace="0em" rspace="0em">−</mo></msup></msub></mrow><annotation encoding="application/x-tex">V_{\mathrm{e}^{-}}</annotation></semantics></math></span><span class="katex-html" aria-hidden="true"><span class="base"><span class="strut" style="height: 0.8333em; vertical-align: -0.15em;"></span><span class="mord"><span class="mord mathnormal" style="margin-right: 0.2222em;">V</span><span class="msupsub"><span class="vlist-t vlist-t2"><span class="vlist-r"><span class="vlist" style="height: 0.3419em;"><span class="" style="top: -2.55em; margin-left: -0.2222em; margin-right: 0.05em;"><span class="pstrut" style="height: 2.7em;"></span><span class="sizing reset-size6 size3 mtight"><span class="mord mtight"><span class="mord mtight"><span class="mord mathrm mtight">e</span><span class="msupsub"><span class="vlist-t"><span class="vlist-r"><span class="vlist" style="height: 0.7027em;"><span class="" style="top: -2.786em; margin-right: 0.0714em;"><span class="pstrut" style="height: 2.5em;"></span><span class="sizing reset-size3 size1 mtight"><span class="mord mtight"><span class="mord mtight">−</span></span></span></span></span></span></span></span></span></span></span></span></span><span class="vlist-s">​</span></span><span class="vlist-r"><span class="vlist" style="height: 0.15em;"><span class=""></span></span></span></span></span></span></span></span></span></span></foreignObject><foreignObject class="bd-line-label rp-label-foreign-object" width="1" height="1" style="overflow: visible;" x="0" y="-9" transform="translate(82.22, 91.0479306075542)"><span class="rp-label-span" style="display: inline-block; white-space: nowrap; color: rgb(228, 87, 26);" data-rendered-label="V_{\mathrm{h}^{+}}" data-rendered-mode="math"><span class="katex"><span class="katex-mathml"><math xmlns="http://www.w3.org/1998/Math/MathML"><semantics><mrow><msub><mi>V</mi><msup><mi mathvariant="normal">h</mi><mo lspace="0em" rspace="0em">+</mo></msup></msub></mrow><annotation encoding="application/x-tex">V_{\mathrm{h}^{+}}</annotation></semantics></math></span><span class="katex-html" aria-hidden="true"><span class="base"><span class="strut" style="height: 0.8333em; vertical-align: -0.15em;"></span><span class="mord"><span class="mord mathnormal" style="margin-right: 0.2222em;">V</span><span class="msupsub"><span class="vlist-t vlist-t2"><span class="vlist-r"><span class="vlist" style="height: 0.3419em;"><span class="" style="top: -2.55em; margin-left: -0.2222em; margin-right: 0.05em;"><span class="pstrut" style="height: 2.7em;"></span><span class="sizing reset-size6 size3 mtight"><span class="mord mtight"><span class="mord mtight"><span class="mord mathrm mtight">h</span><span class="msupsub"><span class="vlist-t"><span class="vlist-r"><span class="vlist" style="height: 0.7027em;"><span class="" style="top: -2.786em; margin-right: 0.0714em;"><span class="pstrut" style="height: 2.5em;"></span><span class="sizing reset-size3 size1 mtight"><span class="mord mtight"><span class="mord mtight">+</span></span></span></span></span></span></span></span></span></span></span></span></span><span class="vlist-s">​</span></span><span class="vlist-r"><span class="vlist" style="height: 0.15em;"><span class=""></span></span></span></span></span></span></span></span></span></span></foreignObject><foreignObject class="bd-line-label rp-label-foreign-object" width="1" height="1" style="overflow: visible;" x="0" y="-9" transform="translate(335, 178.5)"><span class="rp-label-span" style="display: inline-block; white-space: nowrap; color: rgb(55, 126, 184);" data-rendered-label="V_{\mathrm{e}^-}" data-rendered-mode="math"><span class="katex"><span class="katex-mathml"><math xmlns="http://www.w3.org/1998/Math/MathML"><semantics><mrow><msub><mi>V</mi><msup><mi mathvariant="normal">e</mi><mo>−</mo></msup></msub></mrow><annotation encoding="application/x-tex">V_{\mathrm{e}^-}</annotation></semantics></math></span><span class="katex-html" aria-hidden="true"><span class="base"><span class="strut" style="height: 0.8333em; vertical-align: -0.15em;"></span><span class="mord"><span class="mord mathnormal" style="margin-right: 0.2222em;">V</span><span class="msupsub"><span class="vlist-t vlist-t2"><span class="vlist-r"><span class="vlist" style="height: 0.3419em;"><span class="" style="top: -2.55em; margin-left: -0.2222em; margin-right: 0.05em;"><span class="pstrut" style="height: 2.7em;"></span><span class="sizing reset-size6 size3 mtight"><span class="mord mtight"><span class="mord mtight"><span class="mord mathrm mtight">e</span><span class="msupsub"><span class="vlist-t"><span class="vlist-r"><span class="vlist" style="height: 0.7027em;"><span class="" style="top: -2.786em; margin-right: 0.0714em;"><span class="pstrut" style="height: 2.5em;"></span><span class="sizing reset-size3 size1 mtight"><span class="mbin mtight">−</span></span></span></span></span></span></span></span></span></span></span></span><span class="vlist-s">​</span></span><span class="vlist-r"><span class="vlist" style="height: 0.15em;"><span class=""></span></span></span></span></span></span></span></span></span></span></foreignObject></g><g class="bd-custom-drawing"></g><g class="bd-axes" style="pointer-events: none;"><g class="bd-x-axis" transform="translate(0,255)" fill="none" font-size="10" font-family="sans-serif" text-anchor="middle"><path class="domain" stroke="currentColor" d="M0.5,0.5H330.5"></path></g><g class="bd-y-axis" fill="none" font-size="10" font-family="sans-serif" text-anchor="end"><path class="domain" stroke="currentColor" d="M0.5,255.5V0.5"></path><g class="tick" opacity="1" transform="translate(0,255.5)"><line stroke="currentColor" x2="-6"></line><text fill="currentColor" x="-9" dy="0.32em">0.0</text></g><g class="tick" opacity="1" transform="translate(0,230)"><line stroke="currentColor" x2="-6"></line><text fill="currentColor" x="-9" dy="0.32em">0.1</text></g><g class="tick" opacity="1" transform="translate(0,204.5)"><line stroke="currentColor" x2="-6"></line><text fill="currentColor" x="-9" dy="0.32em">0.2</text></g><g class="tick" opacity="1" transform="translate(0,179)"><line stroke="currentColor" x2="-6"></line><text fill="currentColor" x="-9" dy="0.32em">0.3</text></g><g class="tick" opacity="1" transform="translate(0,153.5)"><line stroke="currentColor" x2="-6"></line><text fill="currentColor" x="-9" dy="0.32em">0.4</text></g><g class="tick" opacity="1" transform="translate(0,128)"><line stroke="currentColor" x2="-6"></line><text fill="currentColor" x="-9" dy="0.32em">0.5</text></g><g class="tick" opacity="1" transform="translate(0,102.5)"><line stroke="currentColor" x2="-6"></line><text fill="currentColor" x="-9" dy="0.32em">0.6</text></g><g class="tick" opacity="1" transform="translate(0,77.00000000000001)"><line stroke="currentColor" x2="-6"></line><text fill="currentColor" x="-9" dy="0.32em">0.7</text></g><g class="tick" opacity="1" transform="translate(0,51.499999999999986)"><line stroke="currentColor" x2="-6"></line><text fill="currentColor" x="-9" dy="0.32em">0.8</text></g><g class="tick" opacity="1" transform="translate(0,25.999999999999993)"><line stroke="currentColor" x2="-6"></line><text fill="currentColor" x="-9" dy="0.32em">0.9</text></g><g class="tick" opacity="1" transform="translate(0,0.5)"><line stroke="currentColor" x2="-6"></line><text fill="currentColor" x="-9" dy="0.32em">1.0</text></g></g><foreignObject class="rp-y-axis-label rp-label-foreign-object" width="1" height="1" style="overflow: visible;" x="-48.5" y="0" transform="translate(-56, 127.5) rotate(-90)"><span class="rp-label-span" style="display: inline-block; white-space: nowrap;" data-rendered-label="Species Voltage (V)" data-rendered-mode="text">Species Voltage (V)</span></foreignObject></g></g></svg>
