<?xml version="1.0" encoding="utf-8" standalone="no"?>
<!DOCTYPE svg PUBLIC "-//W3C//DTD SVG 1.1//EN"
  "http://www.w3.org/Graphics/SVG/1.1/DTD/svg11.dtd">
<svg xmlns:xlink="http://www.w3.org/1999/xlink" width="360pt" height="223.2pt" viewBox="0 0 360 223.2" xmlns="http://www.w3.org/2000/svg" version="1.1">
 <metadata>
  <rdf:RDF xmlns:dc="http://purl.org/dc/elements/1.1/" xmlns:cc="http://creativecommons.org/ns#" xmlns:rdf="http://www.w3.org/1999/02/22-rdf-syntax-ns#">
   <cc:Work>
    <dc:type rdf:resource="http://purl.org/dc/dcmitype/StillImage"/>
    <dc:date>2026-07-21T11:19:00.434922</dc:date>
    <dc:format>image/svg+xml</dc:format>
    <dc:creator>
     <cc:Agent>
      <dc:title>Matplotlib v3.6.3, https://matplotlib.org/</dc:title>
     </cc:Agent>
    </dc:creator>
   </cc:Work>
  </rdf:RDF>
 </metadata>
 <defs>
  <style type="text/css">*{stroke-linejoin: round; stroke-linecap: butt}</style>
 </defs>
 <g id="figure_1">
  <g id="patch_1">
   <path d="M 0 223.2 
L 360 223.2 
L 360 0 
L 0 0 
z
" style="fill: #ffffff"/>
  </g>
  <g id="axes_1">
   <g id="patch_2">
    <path d="M 54.845 183.168 
L 354.839878 183.168 
L 354.839878 4 
L 54.845 4 
z
" style="fill: #ffffff"/>
   </g>
   <g id="PolyCollection_1">
    <defs>
     <path id="m6b27e67a64" d="M 59.472644 -120.956213 
L 59.472644 -126.417663 
L 59.520993 -126.47228 
L 59.569846 -126.527417 
L 59.61921 -126.58308 
L 59.66909 -126.639272 
L 59.719491 -126.695998 
L 59.770418 -126.753262 
L 59.821878 -126.81107 
L 59.873875 -126.869425 
L 59.926416 -126.928332 
L 59.979505 -126.987796 
L 60.033149 -127.047822 
L 60.087353 -127.108414 
L 60.142124 -127.169576 
L 60.197467 -127.231314 
L 60.253388 -127.293632 
L 60.309894 -127.356536 
L 60.36699 -127.420029 
L 60.424682 -127.484117 
L 60.482977 -127.548804 
L 60.541881 -127.614095 
L 60.601401 -127.679996 
L 60.661542 -127.746511 
L 60.722312 -127.813644 
L 60.783717 -127.881402 
L 60.845763 -127.949789 
L 60.908457 -128.01881 
L 60.971807 -128.088469 
L 61.035818 -128.158773 
L 61.100498 -128.229725 
L 61.165854 -128.301332 
L 61.231893 -128.373598 
L 61.298621 -128.446528 
L 61.366047 -128.520128 
L 61.434177 -128.594402 
L 61.50302 -128.669356 
L 61.572581 -128.744995 
L 61.642869 -128.821324 
L 61.713891 -128.898349 
L 61.785656 -128.976074 
L 61.85817 -129.054506 
L 61.931442 -129.133648 
L 62.005479 -129.213507 
L 62.08029 -129.294088 
L 62.155882 -129.375395 
L 62.232265 -129.457436 
L 62.309445 -129.540213 
L 62.387432 -129.623734 
L 62.466233 -129.708004 
L 62.545858 -129.793027 
L 62.626314 -129.87881 
L 62.707612 -129.965357 
L 62.789758 -130.052674 
L 62.872763 -130.140766 
L 62.956635 -130.22964 
L 63.041383 -130.319299 
L 63.127017 -130.409751 
L 63.213545 -130.500999 
L 63.300978 -130.59305 
L 63.389324 -130.685908 
L 63.478593 -130.779581 
L 63.568794 -130.874072 
L 63.659938 -130.969387 
L 63.752035 -131.065531 
L 63.845093 -131.162511 
L 63.939124 -131.260332 
L 64.034137 -131.358998 
L 64.130143 -131.458516 
L 64.227151 -131.55889 
L 64.325174 -131.660126 
L 64.42422 -131.76223 
L 64.524301 -131.865207 
L 64.625428 -131.969062 
L 64.727612 -132.0738 
L 64.830863 -132.179428 
L 64.935192 -132.28595 
L 65.040612 -132.393371 
L 65.147133 -132.501697 
L 65.254768 -132.610932 
L 65.363526 -132.721084 
L 65.473421 -132.832155 
L 65.584464 -132.944152 
L 65.696667 -133.05708 
L 65.810043 -133.170944 
L 65.924603 -133.285749 
L 66.04036 -133.4015 
L 66.157326 -133.518202 
L 66.275514 -133.63586 
L 66.394937 -133.754479 
L 66.515608 -133.874064 
L 66.63754 -133.994619 
L 66.760745 -134.116151 
L 66.885238 -134.238662 
L 67.011031 -134.362159 
L 67.138139 -134.486646 
L 67.266574 -134.612127 
L 67.396352 -134.738607 
L 67.527485 -134.86609 
L 67.659989 -134.994581 
L 67.793876 -135.124085 
L 67.929163 -135.254605 
L 68.065863 -135.386147 
L 68.203991 -135.518713 
L 68.343562 -135.652309 
L 68.484592 -135.786937 
L 68.627095 -135.922603 
L 68.771087 -136.059311 
L 68.916583 -136.197063 
L 69.063599 -136.335864 
L 69.212152 -136.475717 
L 69.362256 -136.616625 
L 69.513929 -136.758593 
L 69.667186 -136.901624 
L 69.822044 -137.045721 
L 69.978521 -137.190886 
L 70.136632 -137.337124 
L 70.296395 -137.484436 
L 70.457827 -137.632827 
L 70.620946 -137.782298 
L 70.785769 -137.932851 
L 70.952314 -138.084491 
L 71.1206 -138.237218 
L 71.290643 -138.391035 
L 71.462463 -138.545944 
L 71.636078 -138.701947 
L 71.811507 -138.859046 
L 71.988768 -139.017242 
L 72.167882 -139.176537 
L 72.348867 -139.336932 
L 72.531743 -139.498428 
L 72.71653 -139.661027 
L 72.903247 -139.824729 
L 73.091915 -139.989534 
L 73.282554 -140.155444 
L 73.475185 -140.322458 
L 73.669829 -140.490577 
L 73.866506 -140.6598 
L 74.065237 -140.830128 
L 74.266046 -141.001559 
L 74.468952 -141.174094 
L 74.673978 -141.347731 
L 74.881146 -141.522468 
L 75.090479 -141.698306 
L 75.301998 -141.875242 
L 75.515728 -142.053273 
L 75.73169 -142.2324 
L 75.949909 -142.412618 
L 76.170408 -142.593926 
L 76.39321 -142.77632 
L 76.618341 -142.959798 
L 76.845823 -143.144357 
L 77.075682 -143.329992 
L 77.307942 -143.5167 
L 77.54263 -143.704477 
L 77.779769 -143.893318 
L 78.019385 -144.083219 
L 78.261505 -144.274174 
L 78.506155 -144.466178 
L 78.753361 -144.659226 
L 79.003149 -144.853311 
L 79.255548 -145.048427 
L 79.510583 -145.244567 
L 79.768283 -145.441725 
L 80.028675 -145.639893 
L 80.291787 -145.839063 
L 80.557649 -146.039227 
L 80.826288 -146.240377 
L 81.097734 -146.442503 
L 81.372016 -146.645597 
L 81.649163 -146.849648 
L 81.929207 -147.054648 
L 82.212175 -147.260584 
L 82.498101 -147.467447 
L 82.787013 -147.675224 
L 83.078944 -147.883904 
L 83.373926 -148.093475 
L 83.671989 -148.303925 
L 83.973166 -148.515239 
L 84.277489 -148.727404 
L 84.584992 -148.940406 
L 84.895708 -149.15423 
L 85.209671 -149.368861 
L 85.526913 -149.584284 
L 85.84747 -149.800482 
L 86.171376 -150.017438 
L 86.498666 -150.235135 
L 86.829375 -150.453555 
L 87.16354 -150.67268 
L 87.501196 -150.89249 
L 87.842379 -151.112967 
L 88.187128 -151.334089 
L 88.535478 -151.555836 
L 88.887467 -151.778186 
L 89.243134 -152.001117 
L 89.602517 -152.224607 
L 89.965655 -152.448632 
L 90.332587 -152.673168 
L 90.703352 -152.89819 
L 91.077991 -153.123673 
L 91.456544 -153.349589 
L 91.839052 -153.575913 
L 92.225557 -153.802617 
L 92.616099 -154.029672 
L 93.010722 -154.257049 
L 93.409468 -154.484718 
L 93.81238 -154.712649 
L 94.219501 -154.940809 
L 94.630876 -155.169166 
L 95.046549 -155.397687 
L 95.466564 -155.626338 
L 95.890968 -155.855084 
L 96.319806 -156.083888 
L 96.753124 -156.312715 
L 97.19097 -156.541526 
L 97.63339 -156.770284 
L 98.080432 -156.998947 
L 98.532145 -157.227476 
L 98.988577 -157.45583 
L 99.449778 -157.683965 
L 99.915797 -157.911838 
L 100.386685 -158.139405 
L 100.862493 -158.366619 
L 101.343273 -158.593435 
L 101.829075 -158.819805 
L 102.319952 -159.045678 
L 102.815959 -159.271006 
L 103.317147 -159.495737 
L 103.823572 -159.71982 
L 104.335287 -159.943199 
L 104.852349 -160.165821 
L 105.374814 -160.387629 
L 105.902736 -160.608566 
L 106.436174 -160.828574 
L 106.975186 -161.047592 
L 107.519829 -161.26556 
L 108.070162 -161.482415 
L 108.626245 -161.698093 
L 109.188138 -161.912529 
L 109.755901 -162.125656 
L 110.329597 -162.337406 
L 110.909286 -162.547708 
L 111.495031 -162.756493 
L 112.086896 -162.963687 
L 112.684945 -163.169216 
L 113.289242 -163.373004 
L 113.899853 -163.574973 
L 114.516843 -163.775046 
L 115.140279 -163.97314 
L 115.770229 -164.169173 
L 116.40676 -164.363062 
L 117.049942 -164.55472 
L 117.699843 -164.744059 
L 118.356535 -164.93099 
L 119.020087 -165.115422 
L 119.690572 -165.29726 
L 120.368062 -165.47641 
L 121.052631 -165.652774 
L 121.744351 -165.826254 
L 122.443299 -165.996747 
L 123.149549 -166.164151 
L 123.863177 -166.328359 
L 124.584262 -166.489264 
L 125.31288 -166.646757 
L 126.04911 -166.800724 
L 126.793033 -166.951052 
L 127.544727 -167.097623 
L 128.304276 -167.240319 
L 129.07176 -167.379018 
L 129.847262 -167.513596 
L 130.630867 -167.643925 
L 131.422658 -167.769878 
L 132.222722 -167.891321 
L 133.031145 -168.008122 
L 133.848014 -168.120141 
L 134.673417 -168.22724 
L 135.507445 -168.329275 
L 136.350185 -168.426101 
L 137.201731 -168.517568 
L 138.062173 -168.603526 
L 138.931605 -168.683819 
L 139.81012 -168.75829 
L 140.697815 -168.826776 
L 141.594783 -168.889114 
L 142.501123 -168.945136 
L 143.416932 -168.99467 
L 144.342309 -169.037542 
L 145.277354 -169.073574 
L 146.222168 -169.102583 
L 147.176854 -169.124384 
L 148.141513 -169.138788 
L 149.116252 -169.145601 
L 150.101174 -169.144625 
L 151.096386 -169.13566 
L 152.101996 -169.118501 
L 153.118113 -169.092936 
L 154.144845 -169.058753 
L 155.182305 -169.015734 
L 156.230604 -168.963654 
L 157.289855 -168.902287 
L 158.360173 -168.8314 
L 159.441673 -168.750757 
L 160.534472 -168.660115 
L 161.638689 -168.559228 
L 162.754443 -168.447843 
L 163.881853 -168.325703 
L 165.021042 -168.192545 
L 166.172134 -168.048101 
L 167.335252 -167.892097 
L 168.510521 -167.724254 
L 169.69807 -167.544286 
L 170.898025 -167.351901 
L 172.110518 -167.146802 
L 173.335678 -166.928685 
L 174.573639 -166.697239 
L 175.824533 -166.452148 
L 177.088497 -166.193087 
L 178.365666 -165.919727 
L 179.656179 -165.631729 
L 180.960174 -165.328749 
L 182.277793 -165.010434 
L 183.609179 -164.676424 
L 184.954474 -164.326352 
L 186.313825 -163.959842 
L 187.687378 -163.576512 
L 189.075282 -163.175967 
L 190.477686 -162.75781 
L 191.894742 -162.321629 
L 193.326603 -161.867008 
L 194.773423 -161.393519 
L 196.23536 -160.900726 
L 197.71257 -160.388182 
L 199.205215 -159.855433 
L 200.713454 -159.302012 
L 202.23745 -158.727444 
L 203.777369 -158.131242 
L 205.333377 -157.512909 
L 206.905641 -156.871937 
L 208.494332 -156.207806 
L 210.099621 -155.519986 
L 211.721682 -154.807933 
L 213.36069 -154.071094 
L 215.016822 -153.308902 
L 216.690256 -152.520776 
L 218.381175 -151.706124 
L 220.089759 -150.86434 
L 221.816194 -149.994804 
L 223.560667 -149.096884 
L 225.323366 -148.169932 
L 227.10448 -147.213286 
L 228.904204 -146.226268 
L 230.72273 -145.208188 
L 232.560256 -144.158336 
L 234.41698 -143.075989 
L 236.293103 -141.960407 
L 238.188826 -140.810833 
L 240.104356 -139.626493 
L 242.039899 -138.406595 
L 243.995664 -137.15033 
L 245.971862 -135.85687 
L 247.968707 -134.525368 
L 249.986414 -133.154959 
L 252.025202 -131.744755 
L 254.085291 -130.293852 
L 256.166903 -128.801322 
L 258.270263 -127.266219 
L 260.395599 -125.687571 
L 262.54314 -124.064389 
L 264.713117 -122.395657 
L 266.905766 -120.680339 
L 269.121323 -118.917371 
L 271.360028 -117.10567 
L 273.622122 -115.244125 
L 275.90785 -113.331598 
L 278.217458 -111.366929 
L 280.551197 -109.348929 
L 282.909318 -107.27638 
L 285.292076 -105.148039 
L 287.699729 -102.962634 
L 290.132536 -100.718861 
L 292.590761 -98.415389 
L 295.074668 -96.050854 
L 297.584527 -93.623863 
L 300.120608 -91.132989 
L 302.683185 -88.576772 
L 305.272536 -85.953718 
L 307.888939 -83.262301 
L 310.532678 -80.500957 
L 313.204038 -77.668086 
L 315.903308 -74.762053 
L 318.630779 -71.781182 
L 321.386746 -68.723761 
L 324.171506 -65.588037 
L 326.985361 -62.372217 
L 329.828615 -59.074463 
L 332.701574 -55.6929 
L 335.604549 -52.225605 
L 338.537853 -48.670612 
L 341.501804 -45.025909 
L 344.496722 -41.289436 
L 347.52293 -37.459086 
L 347.52293 -120.956213 
L 347.52293 -120.956213 
L 344.496722 -120.956213 
L 341.501804 -120.956213 
L 338.537853 -120.956213 
L 335.604549 -120.956213 
L 332.701574 -120.956213 
L 329.828615 -120.956213 
L 326.985361 -120.956213 
L 324.171506 -120.956213 
L 321.386746 -120.956213 
L 318.630779 -120.956213 
L 315.903308 -120.956213 
L 313.204038 -120.956213 
L 310.532678 -120.956213 
L 307.888939 -120.956213 
L 305.272536 -120.956213 
L 302.683185 -120.956213 
L 300.120608 -120.956213 
L 297.584527 -120.956213 
L 295.074668 -120.956213 
L 292.590761 -120.956213 
L 290.132536 -120.956213 
L 287.699729 -120.956213 
L 285.292076 -120.956213 
L 282.909318 -120.956213 
L 280.551197 -120.956213 
L 278.217458 -120.956213 
L 275.90785 -120.956213 
L 273.622122 -120.956213 
L 271.360028 -120.956213 
L 269.121323 -120.956213 
L 266.905766 -120.956213 
L 264.713117 -120.956213 
L 262.54314 -120.956213 
L 260.395599 -120.956213 
L 258.270263 -120.956213 
L 256.166903 -120.956213 
L 254.085291 -120.956213 
L 252.025202 -120.956213 
L 249.986414 -120.956213 
L 247.968707 -120.956213 
L 245.971862 -120.956213 
L 243.995664 -120.956213 
L 242.039899 -120.956213 
L 240.104356 -120.956213 
L 238.188826 -120.956213 
L 236.293103 -120.956213 
L 234.41698 -120.956213 
L 232.560256 -120.956213 
L 230.72273 -120.956213 
L 228.904204 -120.956213 
L 227.10448 -120.956213 
L 225.323366 -120.956213 
L 223.560667 -120.956213 
L 221.816194 -120.956213 
L 220.089759 -120.956213 
L 218.381175 -120.956213 
L 216.690256 -120.956213 
L 215.016822 -120.956213 
L 213.36069 -120.956213 
L 211.721682 -120.956213 
L 210.099621 -120.956213 
L 208.494332 -120.956213 
L 206.905641 -120.956213 
L 205.333377 -120.956213 
L 203.777369 -120.956213 
L 202.23745 -120.956213 
L 200.713454 -120.956213 
L 199.205215 -120.956213 
L 197.71257 -120.956213 
L 196.23536 -120.956213 
L 194.773423 -120.956213 
L 193.326603 -120.956213 
L 191.894742 -120.956213 
L 190.477686 -120.956213 
L 189.075282 -120.956213 
L 187.687378 -120.956213 
L 186.313825 -120.956213 
L 184.954474 -120.956213 
L 183.609179 -120.956213 
L 182.277793 -120.956213 
L 180.960174 -120.956213 
L 179.656179 -120.956213 
L 178.365666 -120.956213 
L 177.088497 -120.956213 
L 175.824533 -120.956213 
L 174.573639 -120.956213 
L 173.335678 -120.956213 
L 172.110518 -120.956213 
L 170.898025 -120.956213 
L 169.69807 -120.956213 
L 168.510521 -120.956213 
L 167.335252 -120.956213 
L 166.172134 -120.956213 
L 165.021042 -120.956213 
L 163.881853 -120.956213 
L 162.754443 -120.956213 
L 161.638689 -120.956213 
L 160.534472 -120.956213 
L 159.441673 -120.956213 
L 158.360173 -120.956213 
L 157.289855 -120.956213 
L 156.230604 -120.956213 
L 155.182305 -120.956213 
L 154.144845 -120.956213 
L 153.118113 -120.956213 
L 152.101996 -120.956213 
L 151.096386 -120.956213 
L 150.101174 -120.956213 
L 149.116252 -120.956213 
L 148.141513 -120.956213 
L 147.176854 -120.956213 
L 146.222168 -120.956213 
L 145.277354 -120.956213 
L 144.342309 -120.956213 
L 143.416932 -120.956213 
L 142.501123 -120.956213 
L 141.594783 -120.956213 
L 140.697815 -120.956213 
L 139.81012 -120.956213 
L 138.931605 -120.956213 
L 138.062173 -120.956213 
L 137.201731 -120.956213 
L 136.350185 -120.956213 
L 135.507445 -120.956213 
L 134.673417 -120.956213 
L 133.848014 -120.956213 
L 133.031145 -120.956213 
L 132.222722 -120.956213 
L 131.422658 -120.956213 
L 130.630867 -120.956213 
L 129.847262 -120.956213 
L 129.07176 -120.956213 
L 128.304276 -120.956213 
L 127.544727 -120.956213 
L 126.793033 -120.956213 
L 126.04911 -120.956213 
L 125.31288 -120.956213 
L 124.584262 -120.956213 
L 123.863177 -120.956213 
L 123.149549 -120.956213 
L 122.443299 -120.956213 
L 121.744351 -120.956213 
L 121.052631 -120.956213 
L 120.368062 -120.956213 
L 119.690572 -120.956213 
L 119.020087 -120.956213 
L 118.356535 -120.956213 
L 117.699843 -120.956213 
L 117.049942 -120.956213 
L 116.40676 -120.956213 
L 115.770229 -120.956213 
L 115.140279 -120.956213 
L 114.516843 -120.956213 
L 113.899853 -120.956213 
L 113.289242 -120.956213 
L 112.684945 -120.956213 
L 112.086896 -120.956213 
L 111.495031 -120.956213 
L 110.909286 -120.956213 
L 110.329597 -120.956213 
L 109.755901 -120.956213 
L 109.188138 -120.956213 
L 108.626245 -120.956213 
L 108.070162 -120.956213 
L 107.519829 -120.956213 
L 106.975186 -120.956213 
L 106.436174 -120.956213 
L 105.902736 -120.956213 
L 105.374814 -120.956213 
L 104.852349 -120.956213 
L 104.335287 -120.956213 
L 103.823572 -120.956213 
L 103.317147 -120.956213 
L 102.815959 -120.956213 
L 102.319952 -120.956213 
L 101.829075 -120.956213 
L 101.343273 -120.956213 
L 100.862493 -120.956213 
L 100.386685 -120.956213 
L 99.915797 -120.956213 
L 99.449778 -120.956213 
L 98.988577 -120.956213 
L 98.532145 -120.956213 
L 98.080432 -120.956213 
L 97.63339 -120.956213 
L 97.19097 -120.956213 
L 96.753124 -120.956213 
L 96.319806 -120.956213 
L 95.890968 -120.956213 
L 95.466564 -120.956213 
L 95.046549 -120.956213 
L 94.630876 -120.956213 
L 94.219501 -120.956213 
L 93.81238 -120.956213 
L 93.409468 -120.956213 
L 93.010722 -120.956213 
L 92.616099 -120.956213 
L 92.225557 -120.956213 
L 91.839052 -120.956213 
L 91.456544 -120.956213 
L 91.077991 -120.956213 
L 90.703352 -120.956213 
L 90.332587 -120.956213 
L 89.965655 -120.956213 
L 89.602517 -120.956213 
L 89.243134 -120.956213 
L 88.887467 -120.956213 
L 88.535478 -120.956213 
L 88.187128 -120.956213 
L 87.842379 -120.956213 
L 87.501196 -120.956213 
L 87.16354 -120.956213 
L 86.829375 -120.956213 
L 86.498666 -120.956213 
L 86.171376 -120.956213 
L 85.84747 -120.956213 
L 85.526913 -120.956213 
L 85.209671 -120.956213 
L 84.895708 -120.956213 
L 84.584992 -120.956213 
L 84.277489 -120.956213 
L 83.973166 -120.956213 
L 83.671989 -120.956213 
L 83.373926 -120.956213 
L 83.078944 -120.956213 
L 82.787013 -120.956213 
L 82.498101 -120.956213 
L 82.212175 -120.956213 
L 81.929207 -120.956213 
L 81.649163 -120.956213 
L 81.372016 -120.956213 
L 81.097734 -120.956213 
L 80.826288 -120.956213 
L 80.557649 -120.956213 
L 80.291787 -120.956213 
L 80.028675 -120.956213 
L 79.768283 -120.956213 
L 79.510583 -120.956213 
L 79.255548 -120.956213 
L 79.003149 -120.956213 
L 78.753361 -120.956213 
L 78.506155 -120.956213 
L 78.261505 -120.956213 
L 78.019385 -120.956213 
L 77.779769 -120.956213 
L 77.54263 -120.956213 
L 77.307942 -120.956213 
L 77.075682 -120.956213 
L 76.845823 -120.956213 
L 76.618341 -120.956213 
L 76.39321 -120.956213 
L 76.170408 -120.956213 
L 75.949909 -120.956213 
L 75.73169 -120.956213 
L 75.515728 -120.956213 
L 75.301998 -120.956213 
L 75.090479 -120.956213 
L 74.881146 -120.956213 
L 74.673978 -120.956213 
L 74.468952 -120.956213 
L 74.266046 -120.956213 
L 74.065237 -120.956213 
L 73.866506 -120.956213 
L 73.669829 -120.956213 
L 73.475185 -120.956213 
L 73.282554 -120.956213 
L 73.091915 -120.956213 
L 72.903247 -120.956213 
L 72.71653 -120.956213 
L 72.531743 -120.956213 
L 72.348867 -120.956213 
L 72.167882 -120.956213 
L 71.988768 -120.956213 
L 71.811507 -120.956213 
L 71.636078 -120.956213 
L 71.462463 -120.956213 
L 71.290643 -120.956213 
L 71.1206 -120.956213 
L 70.952314 -120.956213 
L 70.785769 -120.956213 
L 70.620946 -120.956213 
L 70.457827 -120.956213 
L 70.296395 -120.956213 
L 70.136632 -120.956213 
L 69.978521 -120.956213 
L 69.822044 -120.956213 
L 69.667186 -120.956213 
L 69.513929 -120.956213 
L 69.362256 -120.956213 
L 69.212152 -120.956213 
L 69.063599 -120.956213 
L 68.916583 -120.956213 
L 68.771087 -120.956213 
L 68.627095 -120.956213 
L 68.484592 -120.956213 
L 68.343562 -120.956213 
L 68.203991 -120.956213 
L 68.065863 -120.956213 
L 67.929163 -120.956213 
L 67.793876 -120.956213 
L 67.659989 -120.956213 
L 67.527485 -120.956213 
L 67.396352 -120.956213 
L 67.266574 -120.956213 
L 67.138139 -120.956213 
L 67.011031 -120.956213 
L 66.885238 -120.956213 
L 66.760745 -120.956213 
L 66.63754 -120.956213 
L 66.515608 -120.956213 
L 66.394937 -120.956213 
L 66.275514 -120.956213 
L 66.157326 -120.956213 
L 66.04036 -120.956213 
L 65.924603 -120.956213 
L 65.810043 -120.956213 
L 65.696667 -120.956213 
L 65.584464 -120.956213 
L 65.473421 -120.956213 
L 65.363526 -120.956213 
L 65.254768 -120.956213 
L 65.147133 -120.956213 
L 65.040612 -120.956213 
L 64.935192 -120.956213 
L 64.830863 -120.956213 
L 64.727612 -120.956213 
L 64.625428 -120.956213 
L 64.524301 -120.956213 
L 64.42422 -120.956213 
L 64.325174 -120.956213 
L 64.227151 -120.956213 
L 64.130143 -120.956213 
L 64.034137 -120.956213 
L 63.939124 -120.956213 
L 63.845093 -120.956213 
L 63.752035 -120.956213 
L 63.659938 -120.956213 
L 63.568794 -120.956213 
L 63.478593 -120.956213 
L 63.389324 -120.956213 
L 63.300978 -120.956213 
L 63.213545 -120.956213 
L 63.127017 -120.956213 
L 63.041383 -120.956213 
L 62.956635 -120.956213 
L 62.872763 -120.956213 
L 62.789758 -120.956213 
L 62.707612 -120.956213 
L 62.626314 -120.956213 
L 62.545858 -120.956213 
L 62.466233 -120.956213 
L 62.387432 -120.956213 
L 62.309445 -120.956213 
L 62.232265 -120.956213 
L 62.155882 -120.956213 
L 62.08029 -120.956213 
L 62.005479 -120.956213 
L 61.931442 -120.956213 
L 61.85817 -120.956213 
L 61.785656 -120.956213 
L 61.713891 -120.956213 
L 61.642869 -120.956213 
L 61.572581 -120.956213 
L 61.50302 -120.956213 
L 61.434177 -120.956213 
L 61.366047 -120.956213 
L 61.298621 -120.956213 
L 61.231893 -120.956213 
L 61.165854 -120.956213 
L 61.100498 -120.956213 
L 61.035818 -120.956213 
L 60.971807 -120.956213 
L 60.908457 -120.956213 
L 60.845763 -120.956213 
L 60.783717 -120.956213 
L 60.722312 -120.956213 
L 60.661542 -120.956213 
L 60.601401 -120.956213 
L 60.541881 -120.956213 
L 60.482977 -120.956213 
L 60.424682 -120.956213 
L 60.36699 -120.956213 
L 60.309894 -120.956213 
L 60.253388 -120.956213 
L 60.197467 -120.956213 
L 60.142124 -120.956213 
L 60.087353 -120.956213 
L 60.033149 -120.956213 
L 59.979505 -120.956213 
L 59.926416 -120.956213 
L 59.873875 -120.956213 
L 59.821878 -120.956213 
L 59.770418 -120.956213 
L 59.719491 -120.956213 
L 59.66909 -120.956213 
L 59.61921 -120.956213 
L 59.569846 -120.956213 
L 59.520993 -120.956213 
L 59.472644 -120.956213 
z
"/>
    </defs>
    <g clip-path="url(#p4210a352ac)">
     <use xlink:href="#m6b27e67a64" x="0" y="223.2" style="fill: #377eb8; fill-opacity: 0.15"/>
    </g>
   </g>
   <g id="matplotlib.axis_1">
    <g id="xtick_1">
     <g id="line2d_1">
      <defs>
       <path id="ma20f6991c9" d="M 0 0 
L 0 3.5 
" style="stroke: #000000; stroke-width: 0.8"/>
      </defs>
      <g>
       <use xlink:href="#ma20f6991c9" x="54.845" y="183.168" style="stroke: #000000; stroke-width: 0.8"/>
      </g>
     </g>
     <g id="text_1">
      <!-- 0.0 -->
      <g transform="translate(46.893437 197.766438) scale(0.1 -0.1)">
       <defs>
        <path id="DejaVuSans-30" d="M 2034 4250 
Q 1547 4250 1301 3770 
Q 1056 3291 1056 2328 
Q 1056 1369 1301 889 
Q 1547 409 2034 409 
Q 2525 409 2770 889 
Q 3016 1369 3016 2328 
Q 3016 3291 2770 3770 
Q 2525 4250 2034 4250 
z
M 2034 4750 
Q 2819 4750 3233 4129 
Q 3647 3509 3647 2328 
Q 3647 1150 3233 529 
Q 2819 -91 2034 -91 
Q 1250 -91 836 529 
Q 422 1150 422 2328 
Q 422 3509 836 4129 
Q 1250 4750 2034 4750 
z
" transform="scale(0.015625)"/>
        <path id="DejaVuSans-2e" d="M 684 794 
L 1344 794 
L 1344 0 
L 684 0 
L 684 794 
z
" transform="scale(0.015625)"/>
       </defs>
       <use xlink:href="#DejaVuSans-30"/>
       <use xlink:href="#DejaVuSans-2e" x="63.623047"/>
       <use xlink:href="#DejaVuSans-30" x="95.410156"/>
      </g>
     </g>
    </g>
    <g id="xtick_2">
     <g id="line2d_2">
      <g>
       <use xlink:href="#ma20f6991c9" x="128.014482" y="183.168" style="stroke: #000000; stroke-width: 0.8"/>
      </g>
     </g>
     <g id="text_2">
      <!-- 0.5 -->
      <g transform="translate(120.06292 197.766438) scale(0.1 -0.1)">
       <defs>
        <path id="DejaVuSans-35" d="M 691 4666 
L 3169 4666 
L 3169 4134 
L 1269 4134 
L 1269 2991 
Q 1406 3038 1543 3061 
Q 1681 3084 1819 3084 
Q 2600 3084 3056 2656 
Q 3513 2228 3513 1497 
Q 3513 744 3044 326 
Q 2575 -91 1722 -91 
Q 1428 -91 1123 -41 
Q 819 9 494 109 
L 494 744 
Q 775 591 1075 516 
Q 1375 441 1709 441 
Q 2250 441 2565 725 
Q 2881 1009 2881 1497 
Q 2881 1984 2565 2268 
Q 2250 2553 1709 2553 
Q 1456 2553 1204 2497 
Q 953 2441 691 2322 
L 691 4666 
z
" transform="scale(0.015625)"/>
       </defs>
       <use xlink:href="#DejaVuSans-30"/>
       <use xlink:href="#DejaVuSans-2e" x="63.623047"/>
       <use xlink:href="#DejaVuSans-35" x="95.410156"/>
      </g>
     </g>
    </g>
    <g id="xtick_3">
     <g id="line2d_3">
      <g>
       <use xlink:href="#ma20f6991c9" x="201.183965" y="183.168" style="stroke: #000000; stroke-width: 0.8"/>
      </g>
     </g>
     <g id="text_3">
      <!-- 1.0 -->
      <g transform="translate(193.232402 197.766438) scale(0.1 -0.1)">
       <defs>
        <path id="DejaVuSans-31" d="M 794 531 
L 1825 531 
L 1825 4091 
L 703 3866 
L 703 4441 
L 1819 4666 
L 2450 4666 
L 2450 531 
L 3481 531 
L 3481 0 
L 794 0 
L 794 531 
z
" transform="scale(0.015625)"/>
       </defs>
       <use xlink:href="#DejaVuSans-31"/>
       <use xlink:href="#DejaVuSans-2e" x="63.623047"/>
       <use xlink:href="#DejaVuSans-30" x="95.410156"/>
      </g>
     </g>
    </g>
    <g id="xtick_4">
     <g id="line2d_4">
      <g>
       <use xlink:href="#ma20f6991c9" x="274.353447" y="183.168" style="stroke: #000000; stroke-width: 0.8"/>
      </g>
     </g>
     <g id="text_4">
      <!-- 1.5 -->
      <g transform="translate(266.401885 197.766438) scale(0.1 -0.1)">
       <use xlink:href="#DejaVuSans-31"/>
       <use xlink:href="#DejaVuSans-2e" x="63.623047"/>
       <use xlink:href="#DejaVuSans-35" x="95.410156"/>
      </g>
     </g>
    </g>
    <g id="xtick_5">
     <g id="line2d_5">
      <g>
       <use xlink:href="#ma20f6991c9" x="347.52293" y="183.168" style="stroke: #000000; stroke-width: 0.8"/>
      </g>
     </g>
     <g id="text_5">
      <!-- 2.0 -->
      <g transform="translate(339.571367 197.766438) scale(0.1 -0.1)">
       <defs>
        <path id="DejaVuSans-32" d="M 1228 531 
L 3431 531 
L 3431 0 
L 469 0 
L 469 531 
Q 828 903 1448 1529 
Q 2069 2156 2228 2338 
Q 2531 2678 2651 2914 
Q 2772 3150 2772 3378 
Q 2772 3750 2511 3984 
Q 2250 4219 1831 4219 
Q 1534 4219 1204 4116 
Q 875 4013 500 3803 
L 500 4441 
Q 881 4594 1212 4672 
Q 1544 4750 1819 4750 
Q 2544 4750 2975 4387 
Q 3406 4025 3406 3419 
Q 3406 3131 3298 2873 
Q 3191 2616 2906 2266 
Q 2828 2175 2409 1742 
Q 1991 1309 1228 531 
z
" transform="scale(0.015625)"/>
       </defs>
       <use xlink:href="#DejaVuSans-32"/>
       <use xlink:href="#DejaVuSans-2e" x="63.623047"/>
       <use xlink:href="#DejaVuSans-30" x="95.410156"/>
      </g>
     </g>
    </g>
    <g id="text_6">
     <!-- $\sqrt{m_{\mathrm{HCl}}}$  (mol/kg)$^{1/2}$ -->
     <g transform="translate(159.692439 213.246125) scale(0.1 -0.1)">
      <defs>
       <path id="STIXSizeOneSym-Regular-221a" d="M 6970 9933 
L 3373 -1888 
L 3104 -1888 
L 1626 2918 
Q 1555 3149 1465 3251 
Q 1376 3354 1229 3354 
Q 1011 3354 794 3181 
L 717 3309 
L 1766 4115 
L 1926 4115 
L 3379 -602 
L 3405 -602 
L 6605 9933 
L 6970 9933 
z
" transform="scale(0.015625)"/>
       <path id="DejaVuSans-Oblique-6d" d="M 5747 2113 
L 5338 0 
L 4763 0 
L 5166 2094 
Q 5191 2228 5203 2325 
Q 5216 2422 5216 2491 
Q 5216 2772 5059 2928 
Q 4903 3084 4622 3084 
Q 4203 3084 3875 2770 
Q 3547 2456 3450 1953 
L 3066 0 
L 2491 0 
L 2900 2094 
Q 2925 2209 2937 2307 
Q 2950 2406 2950 2484 
Q 2950 2769 2794 2926 
Q 2638 3084 2363 3084 
Q 1938 3084 1609 2770 
Q 1281 2456 1184 1953 
L 800 0 
L 225 0 
L 909 3500 
L 1484 3500 
L 1375 2956 
Q 1609 3263 1923 3423 
Q 2238 3584 2597 3584 
Q 2978 3584 3223 3384 
Q 3469 3184 3519 2828 
Q 3781 3197 4126 3390 
Q 4472 3584 4856 3584 
Q 5306 3584 5551 3325 
Q 5797 3066 5797 2591 
Q 5797 2488 5784 2364 
Q 5772 2241 5747 2113 
z
" transform="scale(0.015625)"/>
       <path id="DejaVuSans-48" d="M 628 4666 
L 1259 4666 
L 1259 2753 
L 3553 2753 
L 3553 4666 
L 4184 4666 
L 4184 0 
L 3553 0 
L 3553 2222 
L 1259 2222 
L 1259 0 
L 628 0 
L 628 4666 
z
" transform="scale(0.015625)"/>
       <path id="DejaVuSans-43" d="M 4122 4306 
L 4122 3641 
Q 3803 3938 3442 4084 
Q 3081 4231 2675 4231 
Q 1875 4231 1450 3742 
Q 1025 3253 1025 2328 
Q 1025 1406 1450 917 
Q 1875 428 2675 428 
Q 3081 428 3442 575 
Q 3803 722 4122 1019 
L 4122 359 
Q 3791 134 3420 21 
Q 3050 -91 2638 -91 
Q 1578 -91 968 557 
Q 359 1206 359 2328 
Q 359 3453 968 4101 
Q 1578 4750 2638 4750 
Q 3056 4750 3426 4639 
Q 3797 4528 4122 4306 
z
" transform="scale(0.015625)"/>
       <path id="DejaVuSans-6c" d="M 603 4863 
L 1178 4863 
L 1178 0 
L 603 0 
L 603 4863 
z
" transform="scale(0.015625)"/>
       <path id="DejaVuSans-20" transform="scale(0.015625)"/>
       <path id="DejaVuSans-28" d="M 1984 4856 
Q 1566 4138 1362 3434 
Q 1159 2731 1159 2009 
Q 1159 1288 1364 580 
Q 1569 -128 1984 -844 
L 1484 -844 
Q 1016 -109 783 600 
Q 550 1309 550 2009 
Q 550 2706 781 3412 
Q 1013 4119 1484 4856 
L 1984 4856 
z
" transform="scale(0.015625)"/>
       <path id="DejaVuSans-6d" d="M 3328 2828 
Q 3544 3216 3844 3400 
Q 4144 3584 4550 3584 
Q 5097 3584 5394 3201 
Q 5691 2819 5691 2113 
L 5691 0 
L 5113 0 
L 5113 2094 
Q 5113 2597 4934 2840 
Q 4756 3084 4391 3084 
Q 3944 3084 3684 2787 
Q 3425 2491 3425 1978 
L 3425 0 
L 2847 0 
L 2847 2094 
Q 2847 2600 2669 2842 
Q 2491 3084 2119 3084 
Q 1678 3084 1418 2786 
Q 1159 2488 1159 1978 
L 1159 0 
L 581 0 
L 581 3500 
L 1159 3500 
L 1159 2956 
Q 1356 3278 1631 3431 
Q 1906 3584 2284 3584 
Q 2666 3584 2933 3390 
Q 3200 3197 3328 2828 
z
" transform="scale(0.015625)"/>
       <path id="DejaVuSans-6f" d="M 1959 3097 
Q 1497 3097 1228 2736 
Q 959 2375 959 1747 
Q 959 1119 1226 758 
Q 1494 397 1959 397 
Q 2419 397 2687 759 
Q 2956 1122 2956 1747 
Q 2956 2369 2687 2733 
Q 2419 3097 1959 3097 
z
M 1959 3584 
Q 2709 3584 3137 3096 
Q 3566 2609 3566 1747 
Q 3566 888 3137 398 
Q 2709 -91 1959 -91 
Q 1206 -91 779 398 
Q 353 888 353 1747 
Q 353 2609 779 3096 
Q 1206 3584 1959 3584 
z
" transform="scale(0.015625)"/>
       <path id="DejaVuSans-2f" d="M 1625 4666 
L 2156 4666 
L 531 -594 
L 0 -594 
L 1625 4666 
z
" transform="scale(0.015625)"/>
       <path id="DejaVuSans-6b" d="M 581 4863 
L 1159 4863 
L 1159 1991 
L 2875 3500 
L 3609 3500 
L 1753 1863 
L 3688 0 
L 2938 0 
L 1159 1709 
L 1159 0 
L 581 0 
L 581 4863 
z
" transform="scale(0.015625)"/>
       <path id="DejaVuSans-67" d="M 2906 1791 
Q 2906 2416 2648 2759 
Q 2391 3103 1925 3103 
Q 1463 3103 1205 2759 
Q 947 2416 947 1791 
Q 947 1169 1205 825 
Q 1463 481 1925 481 
Q 2391 481 2648 825 
Q 2906 1169 2906 1791 
z
M 3481 434 
Q 3481 -459 3084 -895 
Q 2688 -1331 1869 -1331 
Q 1566 -1331 1297 -1286 
Q 1028 -1241 775 -1147 
L 775 -588 
Q 1028 -725 1275 -790 
Q 1522 -856 1778 -856 
Q 2344 -856 2625 -561 
Q 2906 -266 2906 331 
L 2906 616 
Q 2728 306 2450 153 
Q 2172 0 1784 0 
Q 1141 0 747 490 
Q 353 981 353 1791 
Q 353 2603 747 3093 
Q 1141 3584 1784 3584 
Q 2172 3584 2450 3431 
Q 2728 3278 2906 2969 
L 2906 3500 
L 3481 3500 
L 3481 434 
z
" transform="scale(0.015625)"/>
       <path id="DejaVuSans-29" d="M 513 4856 
L 1013 4856 
Q 1481 4119 1714 3412 
Q 1947 2706 1947 2009 
Q 1947 1309 1714 600 
Q 1481 -109 1013 -844 
L 513 -844 
Q 928 -128 1133 580 
Q 1338 1288 1338 2009 
Q 1338 2731 1133 3434 
Q 928 4138 513 4856 
z
" transform="scale(0.015625)"/>
      </defs>
      <use xlink:href="#STIXSizeOneSym-Regular-221a" transform="translate(0 0.0625) scale(0.566593)"/>
      <use xlink:href="#DejaVuSans-Oblique-6d" transform="translate(72.385635 0.75)"/>
      <use xlink:href="#DejaVuSans-48" transform="translate(169.797745 -15.65625) scale(0.7)"/>
      <use xlink:href="#DejaVuSans-43" transform="translate(222.434464 -15.65625) scale(0.7)"/>
      <use xlink:href="#DejaVuSans-6c" transform="translate(271.311417 -15.65625) scale(0.7)"/>
      <use xlink:href="#DejaVuSans-20" transform="translate(305.994034 0.745312)"/>
      <use xlink:href="#DejaVuSans-20" transform="translate(337.781143 0.745312)"/>
      <use xlink:href="#DejaVuSans-28" transform="translate(369.568253 0.745312)"/>
      <use xlink:href="#DejaVuSans-6d" transform="translate(408.581924 0.745312)"/>
      <use xlink:href="#DejaVuSans-6f" transform="translate(505.994034 0.745312)"/>
      <use xlink:href="#DejaVuSans-6c" transform="translate(567.175674 0.745312)"/>
      <use xlink:href="#DejaVuSans-2f" transform="translate(594.958878 0.745312)"/>
      <use xlink:href="#DejaVuSans-6b" transform="translate(628.650284 0.745312)"/>
      <use xlink:href="#DejaVuSans-67" transform="translate(686.56044 0.745312)"/>
      <use xlink:href="#DejaVuSans-29" transform="translate(750.037003 0.745312)"/>
      <use xlink:href="#DejaVuSans-31" transform="translate(790.007706 39.026562) scale(0.7)"/>
      <use xlink:href="#DejaVuSans-2f" transform="translate(834.543839 39.026562) scale(0.7)"/>
      <use xlink:href="#DejaVuSans-32" transform="translate(855.590323 39.026562) scale(0.7)"/>
      <path d="M 59.885635 81.5 
L 59.885635 87.75 
L 305.994034 87.75 
L 305.994034 81.5 
L 59.885635 81.5 
z
"/>
     </g>
    </g>
   </g>
   <g id="matplotlib.axis_2">
    <g id="ytick_1">
     <g id="line2d_6">
      <defs>
       <path id="me828673373" d="M 0 0 
L -3.5 0 
" style="stroke: #000000; stroke-width: 0.8"/>
      </defs>
      <g>
       <use xlink:href="#me828673373" x="54.845" y="168.237333" style="stroke: #000000; stroke-width: 0.8"/>
      </g>
     </g>
     <g id="text_7">
      <!-- 0.20 -->
      <g transform="translate(25.579375 172.036552) scale(0.1 -0.1)">
       <use xlink:href="#DejaVuSans-30"/>
       <use xlink:href="#DejaVuSans-2e" x="63.623047"/>
       <use xlink:href="#DejaVuSans-32" x="95.410156"/>
       <use xlink:href="#DejaVuSans-30" x="159.033203"/>
      </g>
     </g>
    </g>
    <g id="ytick_2">
     <g id="line2d_7">
      <g>
       <use xlink:href="#me828673373" x="54.845" y="138.376" style="stroke: #000000; stroke-width: 0.8"/>
      </g>
     </g>
     <g id="text_8">
      <!-- 0.21 -->
      <g transform="translate(25.579375 142.175219) scale(0.1 -0.1)">
       <use xlink:href="#DejaVuSans-30"/>
       <use xlink:href="#DejaVuSans-2e" x="63.623047"/>
       <use xlink:href="#DejaVuSans-32" x="95.410156"/>
       <use xlink:href="#DejaVuSans-31" x="159.033203"/>
      </g>
     </g>
    </g>
    <g id="ytick_3">
     <g id="line2d_8">
      <g>
       <use xlink:href="#me828673373" x="54.845" y="108.514667" style="stroke: #000000; stroke-width: 0.8"/>
      </g>
     </g>
     <g id="text_9">
      <!-- 0.22 -->
      <g transform="translate(25.579375 112.313885) scale(0.1 -0.1)">
       <use xlink:href="#DejaVuSans-30"/>
       <use xlink:href="#DejaVuSans-2e" x="63.623047"/>
       <use xlink:href="#DejaVuSans-32" x="95.410156"/>
       <use xlink:href="#DejaVuSans-32" x="159.033203"/>
      </g>
     </g>
    </g>
    <g id="ytick_4">
     <g id="line2d_9">
      <g>
       <use xlink:href="#me828673373" x="54.845" y="78.653333" style="stroke: #000000; stroke-width: 0.8"/>
      </g>
     </g>
     <g id="text_10">
      <!-- 0.23 -->
      <g transform="translate(25.579375 82.452552) scale(0.1 -0.1)">
       <defs>
        <path id="DejaVuSans-33" d="M 2597 2516 
Q 3050 2419 3304 2112 
Q 3559 1806 3559 1356 
Q 3559 666 3084 287 
Q 2609 -91 1734 -91 
Q 1441 -91 1130 -33 
Q 819 25 488 141 
L 488 750 
Q 750 597 1062 519 
Q 1375 441 1716 441 
Q 2309 441 2620 675 
Q 2931 909 2931 1356 
Q 2931 1769 2642 2001 
Q 2353 2234 1838 2234 
L 1294 2234 
L 1294 2753 
L 1863 2753 
Q 2328 2753 2575 2939 
Q 2822 3125 2822 3475 
Q 2822 3834 2567 4026 
Q 2313 4219 1838 4219 
Q 1578 4219 1281 4162 
Q 984 4106 628 3988 
L 628 4550 
Q 988 4650 1302 4700 
Q 1616 4750 1894 4750 
Q 2613 4750 3031 4423 
Q 3450 4097 3450 3541 
Q 3450 3153 3228 2886 
Q 3006 2619 2597 2516 
z
" transform="scale(0.015625)"/>
       </defs>
       <use xlink:href="#DejaVuSans-30"/>
       <use xlink:href="#DejaVuSans-2e" x="63.623047"/>
       <use xlink:href="#DejaVuSans-32" x="95.410156"/>
       <use xlink:href="#DejaVuSans-33" x="159.033203"/>
      </g>
     </g>
    </g>
    <g id="ytick_5">
     <g id="line2d_10">
      <g>
       <use xlink:href="#me828673373" x="54.845" y="48.792" style="stroke: #000000; stroke-width: 0.8"/>
      </g>
     </g>
     <g id="text_11">
      <!-- 0.24 -->
      <g transform="translate(25.579375 52.591219) scale(0.1 -0.1)">
       <defs>
        <path id="DejaVuSans-34" d="M 2419 4116 
L 825 1625 
L 2419 1625 
L 2419 4116 
z
M 2253 4666 
L 3047 4666 
L 3047 1625 
L 3713 1625 
L 3713 1100 
L 3047 1100 
L 3047 0 
L 2419 0 
L 2419 1100 
L 313 1100 
L 313 1709 
L 2253 4666 
z
" transform="scale(0.015625)"/>
       </defs>
       <use xlink:href="#DejaVuSans-30"/>
       <use xlink:href="#DejaVuSans-2e" x="63.623047"/>
       <use xlink:href="#DejaVuSans-32" x="95.410156"/>
       <use xlink:href="#DejaVuSans-34" x="159.033203"/>
      </g>
     </g>
    </g>
    <g id="ytick_6">
     <g id="line2d_11">
      <g>
       <use xlink:href="#me828673373" x="54.845" y="18.930667" style="stroke: #000000; stroke-width: 0.8"/>
      </g>
     </g>
     <g id="text_12">
      <!-- 0.25 -->
      <g transform="translate(25.579375 22.729885) scale(0.1 -0.1)">
       <use xlink:href="#DejaVuSans-30"/>
       <use xlink:href="#DejaVuSans-2e" x="63.623047"/>
       <use xlink:href="#DejaVuSans-32" x="95.410156"/>
       <use xlink:href="#DejaVuSans-35" x="159.033203"/>
      </g>
     </g>
    </g>
    <g id="text_13">
     <!-- $E + \frac{2RT}{F}\ln m$  (V) -->
     <g transform="translate(17.679375 131.084) rotate(-90) scale(0.1 -0.1)">
      <defs>
       <path id="DejaVuSans-Oblique-45" d="M 1081 4666 
L 4031 4666 
L 3928 4134 
L 1606 4134 
L 1338 2753 
L 3566 2753 
L 3463 2222 
L 1234 2222 
L 909 531 
L 3284 531 
L 3181 0 
L 172 0 
L 1081 4666 
z
" transform="scale(0.015625)"/>
       <path id="DejaVuSans-2b" d="M 2944 4013 
L 2944 2272 
L 4684 2272 
L 4684 1741 
L 2944 1741 
L 2944 0 
L 2419 0 
L 2419 1741 
L 678 1741 
L 678 2272 
L 2419 2272 
L 2419 4013 
L 2944 4013 
z
" transform="scale(0.015625)"/>
       <path id="DejaVuSans-Oblique-52" d="M 1613 4147 
L 1294 2491 
L 2106 2491 
Q 2584 2491 2879 2755 
Q 3175 3019 3175 3444 
Q 3175 3784 2976 3965 
Q 2778 4147 2406 4147 
L 1613 4147 
z
M 2772 2241 
Q 2972 2194 3105 2009 
Q 3238 1825 3413 1275 
L 3809 0 
L 3144 0 
L 2778 1197 
Q 2638 1659 2453 1815 
Q 2269 1972 1888 1972 
L 1191 1972 
L 806 0 
L 172 0 
L 1081 4666 
L 2503 4666 
Q 3150 4666 3495 4373 
Q 3841 4081 3841 3531 
Q 3841 3044 3547 2687 
Q 3253 2331 2772 2241 
z
" transform="scale(0.015625)"/>
       <path id="DejaVuSans-Oblique-54" d="M 378 4666 
L 4325 4666 
L 4225 4134 
L 2559 4134 
L 1759 0 
L 1125 0 
L 1925 4134 
L 275 4134 
L 378 4666 
z
" transform="scale(0.015625)"/>
       <path id="DejaVuSans-Oblique-46" d="M 1081 4666 
L 3756 4666 
L 3653 4134 
L 1606 4134 
L 1338 2759 
L 3188 2759 
L 3084 2228 
L 1234 2228 
L 800 0 
L 172 0 
L 1081 4666 
z
" transform="scale(0.015625)"/>
       <path id="DejaVuSans-6e" d="M 3513 2113 
L 3513 0 
L 2938 0 
L 2938 2094 
Q 2938 2591 2744 2837 
Q 2550 3084 2163 3084 
Q 1697 3084 1428 2787 
Q 1159 2491 1159 1978 
L 1159 0 
L 581 0 
L 581 3500 
L 1159 3500 
L 1159 2956 
Q 1366 3272 1645 3428 
Q 1925 3584 2291 3584 
Q 2894 3584 3203 3211 
Q 3513 2838 3513 2113 
z
" transform="scale(0.015625)"/>
       <path id="DejaVuSans-56" d="M 1831 0 
L 50 4666 
L 709 4666 
L 2188 738 
L 3669 4666 
L 4325 4666 
L 2547 0 
L 1831 0 
z
" transform="scale(0.015625)"/>
      </defs>
      <use xlink:href="#DejaVuSans-Oblique-45" transform="translate(0 0.25)"/>
      <use xlink:href="#DejaVuSans-2b" transform="translate(82.666016 0.25)"/>
      <use xlink:href="#DejaVuSans-32" transform="translate(185.9375 44.046875) scale(0.7)"/>
      <use xlink:href="#DejaVuSans-Oblique-52" transform="translate(230.473633 44.046875) scale(0.7)"/>
      <use xlink:href="#DejaVuSans-Oblique-54" transform="translate(279.111328 44.046875) scale(0.7)"/>
      <use xlink:href="#DejaVuSans-Oblique-46" transform="translate(233.9375 -38.2375) scale(0.7)"/>
      <use xlink:href="#DejaVuSans-6c" transform="translate(334.370117 0.25)"/>
      <use xlink:href="#DejaVuSans-6e" transform="translate(362.15332 0.25)"/>
      <use xlink:href="#DejaVuSans-Oblique-6d" transform="translate(441.767903 0.25)"/>
      <use xlink:href="#DejaVuSans-20" transform="translate(539.180012 0.25)"/>
      <use xlink:href="#DejaVuSans-20" transform="translate(570.967122 0.25)"/>
      <use xlink:href="#DejaVuSans-28" transform="translate(602.754231 0.25)"/>
      <use xlink:href="#DejaVuSans-56" transform="translate(641.767903 0.25)"/>
      <use xlink:href="#DejaVuSans-29" transform="translate(710.176106 0.25)"/>
      <path d="M 185.9375 19.046875 
L 185.9375 25.296875 
L 321.870117 25.296875 
L 321.870117 19.046875 
L 185.9375 19.046875 
z
"/>
     </g>
    </g>
   </g>
   <g id="line2d_12">
    <path d="M 54.845 102.243787 
L 354.839878 102.243787 
" clip-path="url(#p4210a352ac)" style="fill: none; stroke-dasharray: 7.5,4.5; stroke-dashoffset: 0; stroke: #909090; stroke-width: 1.5"/>
   </g>
   <g id="patch_3">
    <path d="M 54.845 183.168 
L 54.845 4 
" style="fill: none; stroke: #000000; stroke-width: 0.8; stroke-linejoin: miter; stroke-linecap: square"/>
   </g>
   <g id="patch_4">
    <path d="M 54.845 183.168 
L 354.839878 183.168 
" style="fill: none; stroke: #000000; stroke-width: 0.8; stroke-linejoin: miter; stroke-linecap: square"/>
   </g>
   <g id="line2d_13">
    <path d="M 59.472644 96.782337 
L 63.478593 92.420419 
L 67.527485 88.33391 
L 71.636078 84.498053 
L 75.73169 80.9676 
L 80.028675 77.560107 
L 84.277489 74.472596 
L 88.535478 71.644164 
L 93.010722 68.942951 
L 97.63339 66.429716 
L 102.319952 64.154322 
L 106.975186 62.152408 
L 111.495031 60.443507 
L 116.40676 58.836938 
L 121.052631 57.547226 
L 126.04911 56.399276 
L 130.630867 55.556075 
L 135.507445 54.870725 
L 140.697815 54.373224 
L 146.222168 54.097417 
L 151.096386 54.06434 
L 156.230604 54.236346 
L 161.638689 54.640772 
L 167.335252 55.307903 
L 173.335678 56.271315 
L 178.365666 57.280273 
L 183.609179 58.523576 
L 189.075282 60.024033 
L 194.773423 61.806481 
L 200.713454 63.897988 
L 206.905641 66.328063 
L 213.36069 69.128906 
L 220.089759 72.33566 
L 227.10448 75.986714 
L 232.560256 79.041664 
L 238.188826 82.389167 
L 243.995664 86.04967 
L 249.986414 90.045041 
L 256.166903 94.398678 
L 262.54314 99.135611 
L 269.121323 104.282629 
L 275.90785 109.868402 
L 282.909318 115.92362 
L 290.132536 122.481139 
L 297.584527 129.576137 
L 305.272536 137.246282 
L 313.204038 145.531914 
L 321.386746 154.476239 
L 329.828615 164.125537 
L 338.537853 174.529388 
L 347.52293 185.740914 
L 347.52293 185.740914 
" clip-path="url(#p4210a352ac)" style="fill: none; stroke: #377eb8; stroke-width: 2.2; stroke-linecap: square"/>
   </g>
   <g id="patch_5">
    <path d="M 75.61488 72.342654 
Q 65.801669 86.470136 55.988459 100.597618 
" style="fill: none; stroke: #999999; stroke-width: 0.8; stroke-linecap: round"/>
   </g>
   <g id="text_14">
    <!-- $E^\circ$ -->
    <g style="fill: #377eb8" transform="translate(73.869065 66.410187) scale(0.11 -0.11)">
     <defs>
      <path id="DejaVuSans-2218" d="M 2003 2603 
Q 1753 2603 1581 2429 
Q 1409 2256 1409 2006 
Q 1409 1759 1581 1589 
Q 1753 1419 2003 1419 
Q 2253 1419 2425 1589 
Q 2597 1759 2597 2006 
Q 2597 2253 2423 2428 
Q 2250 2603 2003 2603 
z
M 2003 3006 
Q 2203 3006 2387 2929 
Q 2572 2853 2706 2709 
Q 2850 2569 2922 2390 
Q 2994 2212 2994 2006 
Q 2994 1594 2705 1308 
Q 2416 1022 1997 1022 
Q 1575 1022 1294 1303 
Q 1013 1584 1013 2006 
Q 1013 2425 1300 2715 
Q 1588 3006 2003 3006 
z
" transform="scale(0.015625)"/>
     </defs>
     <use xlink:href="#DejaVuSans-Oblique-45" transform="translate(0 0.09375)"/>
     <use xlink:href="#DejaVuSans-2218" transform="translate(83.83806 38.375) scale(0.7)"/>
    </g>
   </g>
   <g id="patch_6">
    <path d="M 149.116252 99.24045 
Q 149.116252 78.15 149.116252 57.059551 
" style="fill: none; stroke: #555555; stroke-width: 0.9; stroke-linecap: round"/>
    <path d="M 151.116252 95.24045 
L 149.116252 99.24045 
L 147.116252 95.24045 
" style="fill: none; stroke: #555555; stroke-width: 0.9; stroke-linecap: round"/>
    <path d="M 147.116252 61.059551 
L 149.116252 57.059551 
L 151.116252 61.059551 
" style="fill: none; stroke: #555555; stroke-width: 0.9; stroke-linecap: round"/>
   </g>
   <g id="text_15">
    <!-- $\frac{2RT}{F}\ln\gamma_\pm$ -->
    <g style="fill: #555555" transform="translate(160.823369 78.01296) scale(0.1 -0.1)">
     <defs>
      <path id="DejaVuSans-Oblique-3b3" d="M 1491 2950 
L 1838 788 
L 3456 3500 
L 4066 3500 
L 1972 0 
L 1713 -1331 
L 1138 -1331 
L 1397 0 
L 988 2613 
Q 925 3006 628 3006 
L 475 3006 
L 569 3500 
L 788 3500 
Q 1403 3500 1491 2950 
z
" transform="scale(0.015625)"/>
      <path id="DejaVuSans-b1" d="M 2944 4013 
L 2944 2803 
L 4684 2803 
L 4684 2272 
L 2944 2272 
L 2944 1063 
L 2419 1063 
L 2419 2272 
L 678 2272 
L 678 2803 
L 2419 2803 
L 2419 4013 
L 2944 4013 
z
M 678 531 
L 4684 531 
L 4684 0 
L 678 0 
L 678 531 
z
" transform="scale(0.015625)"/>
     </defs>
     <use xlink:href="#DejaVuSans-32" transform="translate(0 44.046875) scale(0.7)"/>
     <use xlink:href="#DejaVuSans-Oblique-52" transform="translate(44.536133 44.046875) scale(0.7)"/>
     <use xlink:href="#DejaVuSans-Oblique-54" transform="translate(93.173828 44.046875) scale(0.7)"/>
     <use xlink:href="#DejaVuSans-Oblique-46" transform="translate(48 -38.2375) scale(0.7)"/>
     <use xlink:href="#DejaVuSans-6c" transform="translate(148.432617 0.25)"/>
     <use xlink:href="#DejaVuSans-6e" transform="translate(176.21582 0.25)"/>
     <use xlink:href="#DejaVuSans-Oblique-3b3" transform="translate(255.830403 0.25)"/>
     <use xlink:href="#DejaVuSans-b1" transform="translate(328.647786 -16.15625) scale(0.7)"/>
     <path d="M 0 19.046875 
L 0 25.296875 
L 135.932617 25.296875 
L 135.932617 19.046875 
L 0 19.046875 
z
"/>
    </g>
   </g>
   <g id="line2d_14">
    <defs>
     <path id="mbc4d6697ea" d="M 0 3 
C 0.795609 3 1.55874 2.683901 2.12132 2.12132 
C 2.683901 1.55874 3 0.795609 3 0 
C 3 -0.795609 2.683901 -1.55874 2.12132 -2.12132 
C 1.55874 -2.683901 0.795609 -3 0 -3 
C -0.795609 -3 -1.55874 -2.683901 -2.12132 -2.12132 
C -2.683901 -1.55874 -3 -0.795609 -3 0 
C -3 0.795609 -2.683901 1.55874 -2.12132 2.12132 
C -1.55874 2.683901 -0.795609 3 0 3 
z
" style="stroke: #377eb8"/>
    </defs>
    <g clip-path="url(#p4210a352ac)">
     <use xlink:href="#mbc4d6697ea" x="54.845" y="102.243787" style="fill: #377eb8; stroke: #377eb8"/>
    </g>
   </g>
  </g>
 </g>
 <defs>
  <clipPath id="p4210a352ac">
   <rect x="54.845" y="4" width="299.994878" height="179.168"/>
  </clipPath>
 </defs>
</svg>
