<?xml version="1.0" encoding="utf-8" standalone="no"?>
<!DOCTYPE svg PUBLIC "-//W3C//DTD SVG 1.1//EN"
  "http://www.w3.org/Graphics/SVG/1.1/DTD/svg11.dtd">
<svg xmlns:xlink="http://www.w3.org/1999/xlink" width="446.4pt" height="345.6pt" viewBox="0 0 446.4 345.6" xmlns="http://www.w3.org/2000/svg" version="1.1">
 <metadata>
  <rdf:RDF xmlns:dc="http://purl.org/dc/elements/1.1/" xmlns:cc="http://creativecommons.org/ns#" xmlns:rdf="http://www.w3.org/1999/02/22-rdf-syntax-ns#">
   <cc:Work>
    <dc:type rdf:resource="http://purl.org/dc/dcmitype/StillImage"/>
    <dc:date>2026-07-10T07:39:58.913563</dc:date>
    <dc:format>image/svg+xml</dc:format>
    <dc:creator>
     <cc:Agent>
      <dc:title>Matplotlib v3.6.3, https://matplotlib.org/</dc:title>
     </cc:Agent>
    </dc:creator>
   </cc:Work>
  </rdf:RDF>
 </metadata>
 <defs>
  <style type="text/css">*{stroke-linejoin: round; stroke-linecap: butt}</style>
 </defs>
 <g id="figure_1">
  <g id="patch_1">
   <path d="M 0 345.6 
L 446.4 345.6 
L 446.4 0 
L 0 0 
z
" style="fill: #ffffff"/>
  </g>
  <g id="axes_1">
   <g id="patch_2">
    <path d="M 25.18 166.3 
L 442.4 166.3 
L 442.4 4 
L 25.18 4 
z
" style="fill: #ffffff"/>
   </g>
   <g id="patch_3">
    <path d="M 44.144545 166.3 
L 44.144545 4 
L 233.79 4 
L 233.79 166.3 
z
" clip-path="url(#pa9f8691ba5)" style="fill: #f3eedd; stroke: #f3eedd; stroke-linejoin: miter"/>
   </g>
   <g id="patch_4">
    <path d="M 233.79 166.3 
L 233.79 4 
L 423.435455 4 
L 423.435455 166.3 
z
" clip-path="url(#pa9f8691ba5)" style="fill: #e8e0cc; stroke: #e8e0cc; stroke-linejoin: miter"/>
   </g>
   <g id="line2d_1">
    <path d="M 233.79 166.3 
L 233.79 4 
" clip-path="url(#pa9f8691ba5)" style="fill: none; stroke: #c8bfa8; stroke-width: 0.8; stroke-linecap: square"/>
   </g>
   <g id="matplotlib.axis_1"/>
   <g id="matplotlib.axis_2">
    <g id="text_1">
     <!-- $\phi_{\mathrm{micro}}$ -->
     <g transform="translate(15.37 99.835) rotate(-90) scale(0.11 -0.11)">
      <defs>
       <path id="DejaVuSans-Oblique-3d5" d="M 2991 4863 
L 2738 3572 
Q 3363 3572 3684 3094 
Q 4016 2606 3850 1747 
Q 3681 888 3159 400 
Q 2653 -78 2028 -78 
L 1784 -1331 
L 1213 -1331 
L 1456 -78 
Q 834 -78 509 400 
Q 178 888 347 1747 
Q 513 2606 1034 3094 
Q 1544 3572 2166 3572 
L 2419 4863 
L 2991 4863 
z
M 2128 434 
Q 2481 434 2784 756 
Q 3116 1116 3244 1747 
Q 3369 2372 3169 2738 
Q 2991 3059 2638 3059 
L 2128 434 
z
M 1556 434 
L 2066 3059 
Q 1716 3059 1413 2738 
Q 1072 2372 953 1747 
Q 834 1116 1028 756 
Q 1203 434 1556 434 
z
" transform="scale(0.015625)"/>
       <path id="DejaVuSans-6d" d="M 3328 2828 
Q 3544 3216 3844 3400 
Q 4144 3584 4550 3584 
Q 5097 3584 5394 3201 
Q 5691 2819 5691 2113 
L 5691 0 
L 5113 0 
L 5113 2094 
Q 5113 2597 4934 2840 
Q 4756 3084 4391 3084 
Q 3944 3084 3684 2787 
Q 3425 2491 3425 1978 
L 3425 0 
L 2847 0 
L 2847 2094 
Q 2847 2600 2669 2842 
Q 2491 3084 2119 3084 
Q 1678 3084 1418 2786 
Q 1159 2488 1159 1978 
L 1159 0 
L 581 0 
L 581 3500 
L 1159 3500 
L 1159 2956 
Q 1356 3278 1631 3431 
Q 1906 3584 2284 3584 
Q 2666 3584 2933 3390 
Q 3200 3197 3328 2828 
z
" transform="scale(0.015625)"/>
       <path id="DejaVuSans-69" d="M 603 3500 
L 1178 3500 
L 1178 0 
L 603 0 
L 603 3500 
z
M 603 4863 
L 1178 4863 
L 1178 4134 
L 603 4134 
L 603 4863 
z
" transform="scale(0.015625)"/>
       <path id="DejaVuSans-63" d="M 3122 3366 
L 3122 2828 
Q 2878 2963 2633 3030 
Q 2388 3097 2138 3097 
Q 1578 3097 1268 2742 
Q 959 2388 959 1747 
Q 959 1106 1268 751 
Q 1578 397 2138 397 
Q 2388 397 2633 464 
Q 2878 531 3122 666 
L 3122 134 
Q 2881 22 2623 -34 
Q 2366 -91 2075 -91 
Q 1284 -91 818 406 
Q 353 903 353 1747 
Q 353 2603 823 3093 
Q 1294 3584 2113 3584 
Q 2378 3584 2631 3529 
Q 2884 3475 3122 3366 
z
" transform="scale(0.015625)"/>
       <path id="DejaVuSans-72" d="M 2631 2963 
Q 2534 3019 2420 3045 
Q 2306 3072 2169 3072 
Q 1681 3072 1420 2755 
Q 1159 2438 1159 1844 
L 1159 0 
L 581 0 
L 581 3500 
L 1159 3500 
L 1159 2956 
Q 1341 3275 1631 3429 
Q 1922 3584 2338 3584 
Q 2397 3584 2469 3576 
Q 2541 3569 2628 3553 
L 2631 2963 
z
" transform="scale(0.015625)"/>
       <path id="DejaVuSans-6f" d="M 1959 3097 
Q 1497 3097 1228 2736 
Q 959 2375 959 1747 
Q 959 1119 1226 758 
Q 1494 397 1959 397 
Q 2419 397 2687 759 
Q 2956 1122 2956 1747 
Q 2956 2369 2687 2733 
Q 2419 3097 1959 3097 
z
M 1959 3584 
Q 2709 3584 3137 3096 
Q 3566 2609 3566 1747 
Q 3566 888 3137 398 
Q 2709 -91 1959 -91 
Q 1206 -91 779 398 
Q 353 888 353 1747 
Q 353 2609 779 3096 
Q 1206 3584 1959 3584 
z
" transform="scale(0.015625)"/>
      </defs>
      <use xlink:href="#DejaVuSans-Oblique-3d5" transform="translate(0 0.015625)"/>
      <use xlink:href="#DejaVuSans-6d" transform="translate(65.966797 -16.390625) scale(0.7)"/>
      <use xlink:href="#DejaVuSans-69" transform="translate(134.155273 -16.390625) scale(0.7)"/>
      <use xlink:href="#DejaVuSans-63" transform="translate(153.603516 -16.390625) scale(0.7)"/>
      <use xlink:href="#DejaVuSans-72" transform="translate(192.089844 -16.390625) scale(0.7)"/>
      <use xlink:href="#DejaVuSans-6f" transform="translate(220.869141 -16.390625) scale(0.7)"/>
     </g>
    </g>
   </g>
   <g id="line2d_2">
    <path d="M 44.144545 131.408441 
L 46.183489 130.500964 
L 47.985346 129.454213 
L 49.597534 128.261143 
L 51.114887 126.864212 
L 52.632241 125.165841 
L 54.38668 122.849635 
L 57.326552 118.905179 
L 58.227481 118.083746 
L 58.93874 117.711427 
L 59.555165 117.630355 
L 60.124172 117.774413 
L 60.740597 118.173956 
L 61.404439 118.877843 
L 62.210533 120.074114 
L 63.253714 122.06401 
L 64.771067 125.514058 
L 69.892134 137.534749 
L 71.36207 140.268584 
L 72.547503 142.020949 
L 73.543266 143.113319 
L 74.396777 143.739896 
L 75.155454 144.040536 
L 75.866713 144.096137 
L 76.577972 143.931133 
L 77.336649 143.515464 
L 78.142743 142.812966 
L 79.091089 141.66583 
L 80.181686 139.964837 
L 81.461953 137.534527 
L 83.121558 133.869355 
L 85.919179 127.03902 
L 88.052957 122.082043 
L 89.190972 119.952951 
L 90.044483 118.779943 
L 90.755742 118.160111 
L 91.32475 117.92892 
L 91.84634 117.933856 
L 92.415347 118.175255 
L 93.031772 118.70151 
L 93.743032 119.615952 
L 94.64396 121.162294 
L 95.87681 123.769095 
L 98.105422 129.121463 
L 100.903043 135.688058 
L 102.51523 138.919392 
L 103.74808 140.934622 
L 104.79126 142.248404 
L 105.692189 143.051083 
L 106.498283 143.486076 
L 107.25696 143.640161 
L 107.968219 143.556176 
L 108.679478 143.252707 
L 109.485572 142.651337 
L 110.386501 141.674027 
L 111.382264 140.253996 
L 112.567696 138.164668 
L 114.037632 135.102543 
L 116.123993 130.185087 
L 119.68029 121.757084 
L 120.818305 119.648823 
L 121.671816 118.493899 
L 122.383075 117.89044 
L 122.952083 117.67282 
L 123.473673 117.690228 
L 124.04268 117.944905 
L 124.659105 118.48475 
L 125.370365 119.413408 
L 126.271293 120.9751 
L 127.504143 123.598167 
L 129.780173 129.085935 
L 132.530376 135.548233 
L 134.142563 138.781852 
L 135.375413 140.796546 
L 136.418593 142.10846 
L 137.319522 142.908659 
L 138.125616 143.340924 
L 138.884292 143.492164 
L 139.595552 143.405411 
L 140.306811 143.099206 
L 141.112905 142.494933 
L 142.013834 141.514811 
L 143.057014 140.016563 
L 144.289864 137.818005 
L 145.807217 134.621259 
L 147.988412 129.443997 
L 151.212788 121.814427 
L 152.39822 119.597888 
L 153.251732 118.431892 
L 153.962991 117.817004 
L 154.531998 117.58934 
L 155.053589 117.597315 
L 155.622596 117.841973 
L 156.239021 118.371861 
L 156.95028 119.290814 
L 157.851209 120.843547 
L 159.084058 123.460331 
L 161.312671 128.833162 
L 164.110291 135.427274 
L 165.722479 138.67509 
L 167.002746 140.771799 
L 168.045926 142.078981 
L 168.946855 142.87437 
L 169.752949 143.301933 
L 170.511625 143.448562 
L 171.222885 143.35746 
L 171.934144 143.047016 
L 172.740238 142.438221 
L 173.641167 141.453584 
L 174.684347 139.951028 
L 175.917197 137.748858 
L 177.43455 134.549974 
L 179.615745 129.374067 
L 182.792704 121.859152 
L 183.978136 119.632277 
L 184.831647 118.454772 
L 185.542907 117.828126 
L 186.111914 117.590166 
L 186.633504 117.588483 
L 187.202512 117.822884 
L 187.818937 118.342567 
L 188.530196 119.251557 
L 189.431124 120.795068 
L 190.663974 123.405366 
L 192.845169 128.663054 
L 195.737624 135.494012 
L 197.349812 138.740121 
L 198.582662 140.765241 
L 199.625842 142.086522 
L 200.526771 142.895138 
L 201.332864 143.335108 
L 202.091541 143.493661 
L 202.8028 143.413727 
L 203.51406 143.114206 
L 204.320154 142.517188 
L 205.221082 141.544504 
L 206.216845 140.129001 
L 207.402278 138.043347 
L 208.872214 134.980173 
L 210.86374 130.270982 
L 214.989044 120.374547 
L 216.079642 118.385064 
L 216.933153 117.248033 
L 217.644412 116.642277 
L 218.260837 116.386441 
L 218.877262 116.377636 
L 219.493687 116.597406 
L 220.204946 117.094037 
L 221.153292 118.059296 
L 222.718063 120.039236 
L 225.088927 122.986633 
L 226.60628 124.50471 
L 228.028799 125.610936 
L 229.403901 126.401332 
L 230.779002 126.938458 
L 232.154103 127.237594 
L 233.481788 127.303125 
L 234.762054 127.145596 
L 235.947487 126.778572 
L 237.038084 126.212062 
L 238.033848 125.451167 
L 238.982193 124.442781 
L 239.883122 123.140078 
L 240.689216 121.585651 
L 241.49531 119.520901 
L 242.253986 116.920497 
L 242.965246 113.652052 
L 243.629088 109.550588 
L 244.29293 103.952674 
L 244.909355 96.747146 
L 245.478362 87.492275 
L 246.04737 74.397975 
L 246.56896 57.190379 
L 247.09055 32.255898 
L 247.570691 -1 
M 251.596464 -1 
L 252.1642 38.233087 
L 252.780625 66.008251 
L 253.39705 84.320566 
L 254.060892 97.711382 
L 254.772151 107.670784 
L 255.530828 115.262265 
L 256.336922 121.221021 
L 257.23785 126.28076 
L 258.233613 130.624871 
L 259.324211 134.387594 
L 260.414809 137.394536 
L 261.505406 139.777455 
L 262.50117 141.447439 
L 263.402098 142.545997 
L 264.208192 143.191969 
L 264.919451 143.493547 
L 265.583293 143.545936 
L 266.247136 143.376811 
L 266.958395 142.951194 
L 267.717072 142.221903 
L 268.570583 141.067207 
L 269.518929 139.373693 
L 270.514692 137.122873 
L 271.557872 134.200897 
L 272.601053 130.579459 
L 273.549398 126.458537 
L 274.40291 121.748488 
L 275.161586 116.34008 
L 275.872846 109.644862 
L 276.536688 101.171306 
L 277.153112 90.261906 
L 277.72212 76.075734 
L 278.24371 57.618474 
L 278.7653 31.033478 
L 279.207512 -1 
M 283.19508 -1 
L 283.744116 37.334575 
L 284.360541 65.549542 
L 284.976965 84.102341 
L 285.640807 97.629811 
L 286.352067 107.662506 
L 287.110744 115.290931 
L 287.916837 121.267041 
L 288.817766 126.334755 
L 289.813529 130.68281 
L 290.904127 134.44904 
L 292.042142 137.577021 
L 293.132739 139.941017 
L 294.128503 141.596126 
L 295.029431 142.682246 
L 295.835525 143.317545 
L 296.546784 143.609946 
L 297.210626 143.653945 
L 297.874469 143.4766 
L 298.585728 143.04238 
L 299.344405 142.304153 
L 300.197916 141.139668 
L 301.146262 139.435446 
L 302.142025 137.173127 
L 303.185205 134.237803 
L 304.228385 130.599698 
L 305.176731 126.457645 
L 306.030243 121.719336 
L 306.788919 116.272656 
L 307.500179 109.521981 
L 308.164021 100.967205 
L 308.780445 89.938577 
L 309.349453 75.5786 
L 309.871043 56.873034 
L 310.392633 29.905547 
L 310.816286 -1 
M 314.801429 -1 
L 315.324032 35.840571 
L 315.940456 64.615773 
L 316.556881 83.504487 
L 317.220723 97.249227 
L 317.931983 107.421774 
L 318.690659 115.14078 
L 319.496753 121.176372 
L 320.397682 126.285802 
L 321.393445 130.663503 
L 322.484042 134.452023 
L 323.622057 137.597973 
L 324.712655 139.977248 
L 325.708418 141.645967 
L 326.609347 142.744575 
L 327.415441 143.391287 
L 328.1267 143.693919 
L 328.790542 143.747544 
L 329.454384 143.579834 
L 330.165644 143.155879 
L 330.92432 142.428484 
L 331.777831 141.276047 
L 332.726177 139.585231 
L 333.72194 137.337608 
L 334.765121 134.419764 
L 335.808301 130.804032 
L 336.756647 126.690885 
L 337.610158 121.991667 
L 338.368835 116.598229 
L 339.080094 109.924909 
L 339.743936 101.483542 
L 340.360361 90.621432 
L 340.929369 76.504169 
L 341.450959 58.145294 
L 341.972549 31.711831 
L 342.424952 -1 
M 346.407868 -1 
L 346.951364 37.087496 
L 347.567789 65.462299 
L 348.184214 84.111423 
L 348.848056 97.70177 
L 349.559315 107.775575 
L 350.317992 115.431325 
L 351.124086 121.426135 
L 352.025015 126.507836 
L 353.020778 130.86682 
L 354.111375 134.642306 
L 355.24939 137.778646 
L 356.339988 140.1503 
L 357.335751 141.812479 
L 358.23668 142.905193 
L 359.042774 143.546581 
L 359.754033 143.844499 
L 360.417875 143.893753 
L 361.081717 143.721749 
L 361.792977 143.29333 
L 362.551653 142.561368 
L 363.405164 141.404034 
L 364.35351 139.707946 
L 365.349273 137.454562 
L 366.392454 134.529443 
L 367.388217 131.086324 
L 368.336563 127.005163 
L 369.190074 122.347681 
L 369.948751 117.009579 
L 370.66001 110.415108 
L 371.323852 102.08773 
L 371.940277 91.391332 
L 372.509284 77.513951 
L 373.030874 59.496214 
L 373.552465 33.587224 
L 374.035095 -1 
M 378.01248 -1 
L 378.578697 38.44789 
L 379.195122 66.432498 
L 379.811547 84.84973 
L 380.475389 98.292309 
L 381.186648 108.273518 
L 381.945325 115.872108 
L 382.751419 121.832478 
L 383.652348 126.89362 
L 384.648111 131.242089 
L 385.738708 135.013989 
L 386.876723 138.151199 
L 387.967321 140.525959 
L 388.963084 142.192034 
L 389.864013 143.288861 
L 390.670107 143.934361 
L 391.381366 144.236274 
L 392.045208 144.289609 
L 392.70905 144.122063 
L 393.420309 143.698862 
L 394.178986 142.972946 
L 395.032497 141.822861 
L 395.980843 140.134932 
L 396.976606 137.889175 
L 398.019787 134.968819 
L 399.01555 131.523572 
L 399.963896 127.428994 
L 400.817407 122.743067 
L 401.576083 117.358411 
L 402.287343 110.691423 
L 402.951185 102.256602 
L 403.56761 91.405855 
L 404.136617 77.311649 
L 404.658207 58.996344 
L 405.179798 32.645297 
L 405.644643 -1 
M 409.634883 -1 
L 410.158613 35.301266 
L 410.727621 61.665838 
L 411.344045 80.529357 
L 411.96047 93.20266 
L 412.624312 102.595112 
L 413.335572 109.599053 
L 414.094248 114.86994 
L 414.852925 118.677437 
L 415.659019 121.666004 
L 416.51253 124.030223 
L 417.460876 126.001695 
L 418.456639 127.563312 
L 419.547237 128.862854 
L 420.780086 129.9756 
L 422.155188 130.910983 
L 423.435455 131.580523 
L 423.435455 131.580523 
" clip-path="url(#pa9f8691ba5)" style="fill: none; stroke: #909090; stroke-width: 0.8; stroke-linecap: square"/>
   </g>
   <g id="patch_5">
    <path d="M 25.18 166.3 
L 25.18 4 
" style="fill: none; stroke: #000000; stroke-width: 0.8; stroke-linejoin: miter; stroke-linecap: square"/>
   </g>
   <g id="patch_6">
    <path d="M 25.18 166.3 
L 442.4 166.3 
" style="fill: none; stroke: #000000; stroke-width: 0.8; stroke-linejoin: miter; stroke-linecap: square"/>
   </g>
   <g id="text_2">
    <!-- hillium -->
    <g style="fill: #555555" transform="translate(121.388366 27.279688) scale(0.1 -0.1)">
     <defs>
      <path id="DejaVuSerif-68" d="M 263 0 
L 263 331 
L 781 331 
L 781 4531 
L 231 4531 
L 231 4863 
L 1356 4863 
L 1356 2731 
Q 1516 3069 1770 3241 
Q 2025 3413 2363 3413 
Q 2913 3413 3172 3097 
Q 3431 2781 3431 2113 
L 3431 331 
L 3944 331 
L 3944 0 
L 2356 0 
L 2356 331 
L 2853 331 
L 2853 1931 
Q 2853 2541 2704 2764 
Q 2556 2988 2175 2988 
Q 1775 2988 1565 2697 
Q 1356 2406 1356 1850 
L 1356 331 
L 1856 331 
L 1856 0 
L 263 0 
z
" transform="scale(0.015625)"/>
      <path id="DejaVuSerif-69" d="M 622 4353 
Q 622 4497 726 4603 
Q 831 4709 978 4709 
Q 1122 4709 1226 4603 
Q 1331 4497 1331 4353 
Q 1331 4206 1228 4103 
Q 1125 4000 978 4000 
Q 831 4000 726 4103 
Q 622 4206 622 4353 
z
M 1356 331 
L 1900 331 
L 1900 0 
L 231 0 
L 231 331 
L 781 331 
L 781 2988 
L 231 2988 
L 231 3322 
L 1356 3322 
L 1356 331 
z
" transform="scale(0.015625)"/>
      <path id="DejaVuSerif-6c" d="M 1313 331 
L 1856 331 
L 1856 0 
L 184 0 
L 184 331 
L 738 331 
L 738 4531 
L 184 4531 
L 184 4863 
L 1313 4863 
L 1313 331 
z
" transform="scale(0.015625)"/>
      <path id="DejaVuSerif-75" d="M 2266 3322 
L 3341 3322 
L 3341 331 
L 3884 331 
L 3884 0 
L 2766 0 
L 2766 588 
Q 2606 256 2353 82 
Q 2100 -91 1766 -91 
Q 1213 -91 952 223 
Q 691 538 691 1209 
L 691 2988 
L 172 2988 
L 172 3322 
L 1269 3322 
L 1269 1388 
Q 1269 781 1417 556 
Q 1566 331 1947 331 
Q 2347 331 2556 625 
Q 2766 919 2766 1478 
L 2766 2988 
L 2266 2988 
L 2266 3322 
z
" transform="scale(0.015625)"/>
      <path id="DejaVuSerif-6d" d="M 3316 2675 
Q 3481 3041 3739 3227 
Q 3997 3413 4341 3413 
Q 4863 3413 5119 3089 
Q 5375 2766 5375 2113 
L 5375 331 
L 5894 331 
L 5894 0 
L 4300 0 
L 4300 331 
L 4800 331 
L 4800 2047 
Q 4800 2556 4650 2772 
Q 4500 2988 4153 2988 
Q 3769 2988 3567 2697 
Q 3366 2406 3366 1850 
L 3366 331 
L 3866 331 
L 3866 0 
L 2291 0 
L 2291 331 
L 2791 331 
L 2791 2069 
Q 2791 2566 2641 2777 
Q 2491 2988 2144 2988 
Q 1759 2988 1557 2697 
Q 1356 2406 1356 1850 
L 1356 331 
L 1856 331 
L 1856 0 
L 263 0 
L 263 331 
L 781 331 
L 781 2994 
L 231 2994 
L 231 3322 
L 1356 3322 
L 1356 2731 
Q 1516 3063 1762 3238 
Q 2009 3413 2322 3413 
Q 2709 3413 2968 3220 
Q 3228 3028 3316 2675 
z
" transform="scale(0.015625)"/>
     </defs>
     <use xlink:href="#DejaVuSerif-68"/>
     <use xlink:href="#DejaVuSerif-69" x="64.404297"/>
     <use xlink:href="#DejaVuSerif-6c" x="96.386719"/>
     <use xlink:href="#DejaVuSerif-6c" x="128.369141"/>
     <use xlink:href="#DejaVuSerif-69" x="160.351562"/>
     <use xlink:href="#DejaVuSerif-75" x="192.333984"/>
     <use xlink:href="#DejaVuSerif-6d" x="256.738281"/>
    </g>
   </g>
   <g id="text_3">
    <!-- mountainium -->
    <g style="fill: #555555" transform="translate(295.049446 27.279688) scale(0.1 -0.1)">
     <defs>
      <path id="DejaVuSerif-6f" d="M 1925 219 
Q 2388 219 2623 584 
Q 2859 950 2859 1663 
Q 2859 2375 2623 2739 
Q 2388 3103 1925 3103 
Q 1463 3103 1227 2739 
Q 991 2375 991 1663 
Q 991 950 1228 584 
Q 1466 219 1925 219 
z
M 1925 -91 
Q 1200 -91 759 389 
Q 319 869 319 1663 
Q 319 2456 758 2934 
Q 1197 3413 1925 3413 
Q 2653 3413 3092 2934 
Q 3531 2456 3531 1663 
Q 3531 869 3092 389 
Q 2653 -91 1925 -91 
z
" transform="scale(0.015625)"/>
      <path id="DejaVuSerif-6e" d="M 263 0 
L 263 331 
L 781 331 
L 781 2988 
L 231 2988 
L 231 3322 
L 1356 3322 
L 1356 2731 
Q 1516 3069 1770 3241 
Q 2025 3413 2363 3413 
Q 2913 3413 3172 3097 
Q 3431 2781 3431 2113 
L 3431 331 
L 3944 331 
L 3944 0 
L 2356 0 
L 2356 331 
L 2853 331 
L 2853 1931 
Q 2853 2541 2703 2767 
Q 2553 2994 2175 2994 
Q 1775 2994 1565 2701 
Q 1356 2409 1356 1850 
L 1356 331 
L 1856 331 
L 1856 0 
L 263 0 
z
" transform="scale(0.015625)"/>
      <path id="DejaVuSerif-74" d="M 691 2988 
L 184 2988 
L 184 3322 
L 691 3322 
L 691 4353 
L 1269 4353 
L 1269 3322 
L 2350 3322 
L 2350 2988 
L 1269 2988 
L 1269 878 
Q 1269 456 1350 337 
Q 1431 219 1650 219 
Q 1875 219 1978 351 
Q 2081 484 2088 781 
L 2522 781 
Q 2497 328 2275 118 
Q 2053 -91 1600 -91 
Q 1103 -91 897 129 
Q 691 350 691 878 
L 691 2988 
z
" transform="scale(0.015625)"/>
      <path id="DejaVuSerif-61" d="M 2547 1044 
L 2547 1747 
L 1806 1747 
Q 1378 1747 1168 1562 
Q 959 1378 959 997 
Q 959 650 1171 447 
Q 1384 244 1747 244 
Q 2106 244 2326 466 
Q 2547 688 2547 1044 
z
M 3122 2075 
L 3122 331 
L 3634 331 
L 3634 0 
L 2547 0 
L 2547 359 
Q 2356 128 2106 18 
Q 1856 -91 1522 -91 
Q 969 -91 644 203 
Q 319 497 319 997 
Q 319 1513 691 1797 
Q 1063 2081 1741 2081 
L 2547 2081 
L 2547 2309 
Q 2547 2688 2317 2895 
Q 2088 3103 1672 3103 
Q 1328 3103 1125 2947 
Q 922 2791 872 2484 
L 575 2484 
L 575 3156 
Q 875 3284 1158 3348 
Q 1441 3413 1709 3413 
Q 2400 3413 2761 3070 
Q 3122 2728 3122 2075 
z
" transform="scale(0.015625)"/>
     </defs>
     <use xlink:href="#DejaVuSerif-6d"/>
     <use xlink:href="#DejaVuSerif-6f" x="94.824219"/>
     <use xlink:href="#DejaVuSerif-75" x="155.029297"/>
     <use xlink:href="#DejaVuSerif-6e" x="219.433594"/>
     <use xlink:href="#DejaVuSerif-74" x="283.837891"/>
     <use xlink:href="#DejaVuSerif-61" x="324.023438"/>
     <use xlink:href="#DejaVuSerif-69" x="383.642578"/>
     <use xlink:href="#DejaVuSerif-6e" x="415.625"/>
     <use xlink:href="#DejaVuSerif-69" x="480.029297"/>
     <use xlink:href="#DejaVuSerif-75" x="512.011719"/>
     <use xlink:href="#DejaVuSerif-6d" x="576.416016"/>
    </g>
   </g>
  </g>
  <g id="axes_2">
   <g id="patch_7">
    <path d="M 25.18 338.1 
L 442.4 338.1 
L 442.4 175.8 
L 25.18 175.8 
z
" style="fill: #ffffff"/>
   </g>
   <g id="patch_8">
    <path d="M 44.144545 338.1 
L 44.144545 175.8 
L 233.79 175.8 
L 233.79 338.1 
z
" clip-path="url(#p27d0bc6377)" style="fill: #f3eedd; stroke: #f3eedd; stroke-linejoin: miter"/>
   </g>
   <g id="patch_9">
    <path d="M 233.79 338.1 
L 233.79 175.8 
L 423.435455 175.8 
L 423.435455 338.1 
z
" clip-path="url(#p27d0bc6377)" style="fill: #e8e0cc; stroke: #e8e0cc; stroke-linejoin: miter"/>
   </g>
   <g id="line2d_3">
    <path d="M 233.79 338.1 
L 233.79 175.8 
" clip-path="url(#p27d0bc6377)" style="fill: none; stroke: #c8bfa8; stroke-width: 0.8; stroke-linecap: square"/>
   </g>
   <g id="matplotlib.axis_3"/>
   <g id="matplotlib.axis_4"/>
   <g id="line2d_4">
    <path d="M 53.626818 281.772353 
L 413.953182 281.772353 
" clip-path="url(#p27d0bc6377)" style="fill: none; stroke: #d87e37; stroke-width: 2.6"/>
   </g>
   <g id="line2d_5">
    <path d="M 53.626818 309.458824 
L 413.953182 309.458824 
" clip-path="url(#p27d0bc6377)" style="fill: none; stroke: #80b030; stroke-width: 2.6"/>
   </g>
   <g id="line2d_6">
    <path d="M 53.626818 270.315882 
L 413.953182 270.315882 
" clip-path="url(#p27d0bc6377)" style="fill: none; stroke: #d87e37; stroke-width: 1.1"/>
   </g>
   <g id="line2d_7">
    <path d="M 53.626818 320.915294 
L 413.953182 320.915294 
" clip-path="url(#p27d0bc6377)" style="fill: none; stroke: #80b030; stroke-width: 1.1"/>
   </g>
   <g id="patch_10">
    <path d="M 25.18 338.1 
L 25.18 175.8 
" style="fill: none; stroke: #000000; stroke-width: 0.8; stroke-linejoin: miter; stroke-linecap: square"/>
   </g>
   <g id="patch_11">
    <path d="M 25.18 338.1 
L 442.4 338.1 
" style="fill: none; stroke: #000000; stroke-width: 0.8; stroke-linejoin: miter; stroke-linecap: square"/>
   </g>
   <g id="line2d_8">
    <path d="M 59.934503 286.186084 
L 64.676232 289.630865 
L 66.620341 290.72515 
L 68.422198 291.490053 
L 70.271473 292.030867 
L 72.262999 292.377861 
L 74.681281 292.560871 
L 78.095326 292.572538 
L 87.483949 292.278431 
L 105.360268 291.841373 
L 121.150226 291.673668 
L 157.708957 291.476914 
L 186.728339 291.482972 
L 200.763857 291.41023 
L 204.03565 291.170366 
L 206.31168 290.788222 
L 208.208372 290.251426 
L 209.962811 289.52555 
L 211.669834 288.578383 
L 213.471691 287.31703 
L 215.510634 285.607922 
L 218.640176 282.649526 
L 222.196472 279.37092 
L 224.994093 277.122028 
L 227.412374 275.115253 
L 228.455555 273.959036 
L 229.261649 272.749462 
L 229.972908 271.273858 
L 230.589333 269.486606 
L 231.15834 267.172748 
L 231.727348 263.863449 
L 232.248938 259.4951 
L 232.817946 252.609341 
L 233.43437 242.16533 
L 234.904306 215.89583 
L 235.520731 209.379147 
L 236.137156 205.158394 
L 236.753581 202.415857 
L 237.370005 200.610661 
L 238.033848 199.342307 
L 238.69769 198.538601 
L 239.408949 198.027692 
L 240.167626 197.762249 
L 241.021137 197.710367 
L 241.969483 197.877737 
L 243.107498 198.313409 
L 244.435182 199.069856 
L 246.04737 200.260905 
L 248.13373 202.104667 
L 254.392813 207.832505 
L 256.242087 209.122749 
L 257.996527 210.08164 
L 259.750967 210.787175 
L 261.552824 211.271313 
L 263.259846 211.506747 
L 264.729782 211.483109 
L 265.772963 211.533256 
L 268.807669 212.005597 
L 272.411383 212.134148 
L 283.886368 212.246066 
L 294.460424 212.184145 
L 296.309698 211.959842 
L 297.305461 211.911916 
L 302.094607 212.306363 
L 313.048002 212.407496 
L 325.945505 212.364854 
L 327.794779 212.15497 
L 328.885377 212.085778 
L 334.148696 212.49899 
L 347.89971 212.645607 
L 357.952176 212.613384 
L 361.176552 212.485979 
L 363.025826 212.718023 
L 366.582123 212.852984 
L 389.247588 213.306176 
L 390.95461 213.11064 
L 392.140043 213.010421 
L 395.079915 213.126753 
L 396.881772 212.866125 
L 398.683629 212.38731 
L 400.438069 211.693038 
L 402.239926 210.737462 
L 404.278869 209.391983 
L 407.645497 206.846479 
L 407.645497 206.846479 
" clip-path="url(#p27d0bc6377)" style="fill: none; stroke-dasharray: 11,6.6; stroke-dashoffset: 0; stroke: #377eb8; stroke-width: 2.2"/>
   </g>
   <g id="text_4">
    <!-- $\langle\phi\rangle$ -->
    <g style="fill: #377eb8" transform="translate(316.81197 198.712941) scale(0.12 -0.12)">
     <defs>
      <path id="DejaVuSans-27e8" d="M 572 2006 
L 1453 4856 
L 1984 4856 
L 1103 2006 
L 1984 -844 
L 1453 -844 
L 572 2006 
z
" transform="scale(0.015625)"/>
      <path id="DejaVuSans-27e9" d="M 1925 2006 
L 1044 -844 
L 513 -844 
L 1394 2006 
L 513 4856 
L 1044 4856 
L 1925 2006 
z
" transform="scale(0.015625)"/>
     </defs>
     <use xlink:href="#DejaVuSans-27e8" transform="translate(0 0.015625)"/>
     <use xlink:href="#DejaVuSans-Oblique-3d5" transform="translate(39.013672 0.015625)"/>
     <use xlink:href="#DejaVuSans-27e9" transform="translate(104.980469 0.015625)"/>
    </g>
   </g>
   <g id="text_5">
    <!-- $V_{\mathrm{Na}^+}$ -->
    <g style="fill: #d87e37" transform="translate(68.993258 278.430882) scale(0.1 -0.1)">
     <defs>
      <path id="DejaVuSans-Oblique-56" d="M 1319 0 
L 500 4666 
L 1119 4666 
L 1797 653 
L 4063 4666 
L 4750 4666 
L 2053 0 
L 1319 0 
z
" transform="scale(0.015625)"/>
      <path id="DejaVuSans-4e" d="M 628 4666 
L 1478 4666 
L 3547 763 
L 3547 4666 
L 4159 4666 
L 4159 0 
L 3309 0 
L 1241 3903 
L 1241 0 
L 628 0 
L 628 4666 
z
" transform="scale(0.015625)"/>
      <path id="DejaVuSans-61" d="M 2194 1759 
Q 1497 1759 1228 1600 
Q 959 1441 959 1056 
Q 959 750 1161 570 
Q 1363 391 1709 391 
Q 2188 391 2477 730 
Q 2766 1069 2766 1631 
L 2766 1759 
L 2194 1759 
z
M 3341 1997 
L 3341 0 
L 2766 0 
L 2766 531 
Q 2569 213 2275 61 
Q 1981 -91 1556 -91 
Q 1019 -91 701 211 
Q 384 513 384 1019 
Q 384 1609 779 1909 
Q 1175 2209 1959 2209 
L 2766 2209 
L 2766 2266 
Q 2766 2663 2505 2880 
Q 2244 3097 1772 3097 
Q 1472 3097 1187 3025 
Q 903 2953 641 2809 
L 641 3341 
Q 956 3463 1253 3523 
Q 1550 3584 1831 3584 
Q 2591 3584 2966 3190 
Q 3341 2797 3341 1997 
z
" transform="scale(0.015625)"/>
      <path id="DejaVuSans-2b" d="M 2944 4013 
L 2944 2272 
L 4684 2272 
L 4684 1741 
L 2944 1741 
L 2944 0 
L 2419 0 
L 2419 1741 
L 678 1741 
L 678 2272 
L 2419 2272 
L 2419 4013 
L 2944 4013 
z
" transform="scale(0.015625)"/>
     </defs>
     <use xlink:href="#DejaVuSans-Oblique-56" transform="translate(0 0.09375)"/>
     <use xlink:href="#DejaVuSans-4e" transform="translate(68.408203 -16.3125) scale(0.7)"/>
     <use xlink:href="#DejaVuSans-61" transform="translate(120.771484 -16.3125) scale(0.7)"/>
     <use xlink:href="#DejaVuSans-2b" transform="translate(173.883301 10.484375) scale(0.49)"/>
    </g>
   </g>
   <g id="text_6">
    <!-- $V^\circ_{\mathrm{Na}^+}$ -->
    <g style="fill: #d87e37" transform="translate(371.995606 265.542353) scale(0.09 -0.09)">
     <defs>
      <path id="DejaVuSans-2218" d="M 2003 2603 
Q 1753 2603 1581 2429 
Q 1409 2256 1409 2006 
Q 1409 1759 1581 1589 
Q 1753 1419 2003 1419 
Q 2253 1419 2425 1589 
Q 2597 1759 2597 2006 
Q 2597 2253 2423 2428 
Q 2250 2603 2003 2603 
z
M 2003 3006 
Q 2203 3006 2387 2929 
Q 2572 2853 2706 2709 
Q 2850 2569 2922 2390 
Q 2994 2212 2994 2006 
Q 2994 1594 2705 1308 
Q 2416 1022 1997 1022 
Q 1575 1022 1294 1303 
Q 1013 1584 1013 2006 
Q 1013 2425 1300 2715 
Q 1588 3006 2003 3006 
z
" transform="scale(0.015625)"/>
     </defs>
     <use xlink:href="#DejaVuSans-Oblique-56" transform="translate(0 0.444219)"/>
     <use xlink:href="#DejaVuSans-2218" transform="translate(89.062669 43.121875) scale(0.7)"/>
     <use xlink:href="#DejaVuSans-4e" transform="translate(68.408203 -26.899531) scale(0.7)"/>
     <use xlink:href="#DejaVuSans-61" transform="translate(120.771484 -26.899531) scale(0.7)"/>
     <use xlink:href="#DejaVuSans-2b" transform="translate(173.883301 -0.102656) scale(0.49)"/>
    </g>
   </g>
   <g id="text_7">
    <!-- $V_{\mathrm{Cl}^-}$ -->
    <g style="fill: #80b030" transform="translate(70.343258 304.685294) scale(0.1 -0.1)">
     <defs>
      <path id="DejaVuSans-43" d="M 4122 4306 
L 4122 3641 
Q 3803 3938 3442 4084 
Q 3081 4231 2675 4231 
Q 1875 4231 1450 3742 
Q 1025 3253 1025 2328 
Q 1025 1406 1450 917 
Q 1875 428 2675 428 
Q 3081 428 3442 575 
Q 3803 722 4122 1019 
L 4122 359 
Q 3791 134 3420 21 
Q 3050 -91 2638 -91 
Q 1578 -91 968 557 
Q 359 1206 359 2328 
Q 359 3453 968 4101 
Q 1578 4750 2638 4750 
Q 3056 4750 3426 4639 
Q 3797 4528 4122 4306 
z
" transform="scale(0.015625)"/>
      <path id="DejaVuSans-6c" d="M 603 4863 
L 1178 4863 
L 1178 0 
L 603 0 
L 603 4863 
z
" transform="scale(0.015625)"/>
      <path id="DejaVuSans-2212" d="M 678 2272 
L 4684 2272 
L 4684 1741 
L 678 1741 
L 678 2272 
z
" transform="scale(0.015625)"/>
     </defs>
     <use xlink:href="#DejaVuSans-Oblique-56" transform="translate(0 0.09375)"/>
     <use xlink:href="#DejaVuSans-43" transform="translate(68.408203 -16.3125) scale(0.7)"/>
     <use xlink:href="#DejaVuSans-6c" transform="translate(117.285156 -16.3125) scale(0.7)"/>
     <use xlink:href="#DejaVuSans-2212" transform="translate(146.949707 10.484375) scale(0.49)"/>
    </g>
   </g>
   <g id="text_8">
    <!-- $V^\circ_{\mathrm{Cl}^-}$ -->
    <g style="fill: #80b030" transform="translate(373.210606 316.905529) scale(0.09 -0.09)">
     <use xlink:href="#DejaVuSans-Oblique-56" transform="translate(0 0.09375)"/>
     <use xlink:href="#DejaVuSans-2218" transform="translate(89.062669 38.439062) scale(0.7)"/>
     <use xlink:href="#DejaVuSans-43" transform="translate(68.408203 -27.25) scale(0.7)"/>
     <use xlink:href="#DejaVuSans-6c" transform="translate(117.285156 -27.25) scale(0.7)"/>
     <use xlink:href="#DejaVuSans-2212" transform="translate(146.949707 -0.453125) scale(0.49)"/>
    </g>
   </g>
  </g>
 </g>
 <defs>
  <clipPath id="pa9f8691ba5">
   <rect x="25.18" y="4" width="417.22" height="162.3"/>
  </clipPath>
  <clipPath id="p27d0bc6377">
   <rect x="25.18" y="175.8" width="417.22" height="162.3"/>
  </clipPath>
 </defs>
</svg>
