<?xml version="1.0" encoding="utf-8" standalone="no"?>
<!DOCTYPE svg PUBLIC "-//W3C//DTD SVG 1.1//EN"
  "http://www.w3.org/Graphics/SVG/1.1/DTD/svg11.dtd">
<svg xmlns:xlink="http://www.w3.org/1999/xlink" width="362.146562pt" height="447.954375pt" viewBox="0 0 362.146562 447.954375" xmlns="http://www.w3.org/2000/svg" version="1.1">
 <metadata>
  <rdf:RDF xmlns:dc="http://purl.org/dc/elements/1.1/" xmlns:cc="http://creativecommons.org/ns#" xmlns:rdf="http://www.w3.org/1999/02/22-rdf-syntax-ns#">
   <cc:Work>
    <dc:type rdf:resource="http://purl.org/dc/dcmitype/StillImage"/>
    <dc:date>2025-08-11T20:32:50.999038</dc:date>
    <dc:format>image/svg+xml</dc:format>
    <dc:creator>
     <cc:Agent>
      <dc:title>Matplotlib v3.10.0, https://matplotlib.org/</dc:title>
     </cc:Agent>
    </dc:creator>
   </cc:Work>
  </rdf:RDF>
 </metadata>
 <defs>
  <style type="text/css">*{stroke-linejoin: round; stroke-linecap: butt}</style>
 </defs>
 <g id="figure_1">
  <g id="patch_1">
   <path d="M 0 447.954375 
L 362.146562 447.954375 
L 362.146562 0 
L 0 0 
z
" style="fill: #ffffff"/>
  </g>
  <g id="axes_1">
   <g id="patch_2">
    <path d="M 42.620313 410.398125 
L 321.620313 410.398125 
L 321.620313 22.318125 
L 42.620313 22.318125 
z
" style="fill: #ffffff"/>
   </g>
   <g id="matplotlib.axis_1">
    <g id="xtick_1">
     <g id="line2d_1">
      <defs>
       <path id="mea58c04f21" d="M 0 0 
L 0 3.5 
" style="stroke: #000000; stroke-width: 0.8"/>
      </defs>
      <g>
       <use xlink:href="#mea58c04f21" x="52.101245" y="410.398125" style="stroke: #000000; stroke-width: 0.8"/>
      </g>
     </g>
     <g id="text_1">
      <!-- 0 -->
      <g transform="translate(48.919995 424.996562) scale(0.1 -0.1)">
       <defs>
        <path id="DejaVuSans-30" d="M 2034 4250 
Q 1547 4250 1301 3770 
Q 1056 3291 1056 2328 
Q 1056 1369 1301 889 
Q 1547 409 2034 409 
Q 2525 409 2770 889 
Q 3016 1369 3016 2328 
Q 3016 3291 2770 3770 
Q 2525 4250 2034 4250 
z
M 2034 4750 
Q 2819 4750 3233 4129 
Q 3647 3509 3647 2328 
Q 3647 1150 3233 529 
Q 2819 -91 2034 -91 
Q 1250 -91 836 529 
Q 422 1150 422 2328 
Q 422 3509 836 4129 
Q 1250 4750 2034 4750 
z
" transform="scale(0.015625)"/>
       </defs>
       <use xlink:href="#DejaVuSans-30"/>
      </g>
     </g>
    </g>
    <g id="xtick_2">
     <g id="line2d_2">
      <g>
       <use xlink:href="#mea58c04f21" x="89.670324" y="410.398125" style="stroke: #000000; stroke-width: 0.8"/>
      </g>
     </g>
     <g id="text_2">
      <!-- 25 -->
      <g transform="translate(83.307824 424.996562) scale(0.1 -0.1)">
       <defs>
        <path id="DejaVuSans-32" d="M 1228 531 
L 3431 531 
L 3431 0 
L 469 0 
L 469 531 
Q 828 903 1448 1529 
Q 2069 2156 2228 2338 
Q 2531 2678 2651 2914 
Q 2772 3150 2772 3378 
Q 2772 3750 2511 3984 
Q 2250 4219 1831 4219 
Q 1534 4219 1204 4116 
Q 875 4013 500 3803 
L 500 4441 
Q 881 4594 1212 4672 
Q 1544 4750 1819 4750 
Q 2544 4750 2975 4387 
Q 3406 4025 3406 3419 
Q 3406 3131 3298 2873 
Q 3191 2616 2906 2266 
Q 2828 2175 2409 1742 
Q 1991 1309 1228 531 
z
" transform="scale(0.015625)"/>
        <path id="DejaVuSans-35" d="M 691 4666 
L 3169 4666 
L 3169 4134 
L 1269 4134 
L 1269 2991 
Q 1406 3038 1543 3061 
Q 1681 3084 1819 3084 
Q 2600 3084 3056 2656 
Q 3513 2228 3513 1497 
Q 3513 744 3044 326 
Q 2575 -91 1722 -91 
Q 1428 -91 1123 -41 
Q 819 9 494 109 
L 494 744 
Q 775 591 1075 516 
Q 1375 441 1709 441 
Q 2250 441 2565 725 
Q 2881 1009 2881 1497 
Q 2881 1984 2565 2268 
Q 2250 2553 1709 2553 
Q 1456 2553 1204 2497 
Q 953 2441 691 2322 
L 691 4666 
z
" transform="scale(0.015625)"/>
       </defs>
       <use xlink:href="#DejaVuSans-32"/>
       <use xlink:href="#DejaVuSans-35" transform="translate(63.623047 0)"/>
      </g>
     </g>
    </g>
    <g id="xtick_3">
     <g id="line2d_3">
      <g>
       <use xlink:href="#mea58c04f21" x="127.239402" y="410.398125" style="stroke: #000000; stroke-width: 0.8"/>
      </g>
     </g>
     <g id="text_3">
      <!-- 50 -->
      <g transform="translate(120.876902 424.996562) scale(0.1 -0.1)">
       <use xlink:href="#DejaVuSans-35"/>
       <use xlink:href="#DejaVuSans-30" transform="translate(63.623047 0)"/>
      </g>
     </g>
    </g>
    <g id="xtick_4">
     <g id="line2d_4">
      <g>
       <use xlink:href="#mea58c04f21" x="164.808481" y="410.398125" style="stroke: #000000; stroke-width: 0.8"/>
      </g>
     </g>
     <g id="text_4">
      <!-- 75 -->
      <g transform="translate(158.445981 424.996562) scale(0.1 -0.1)">
       <defs>
        <path id="DejaVuSans-37" d="M 525 4666 
L 3525 4666 
L 3525 4397 
L 1831 0 
L 1172 0 
L 2766 4134 
L 525 4134 
L 525 4666 
z
" transform="scale(0.015625)"/>
       </defs>
       <use xlink:href="#DejaVuSans-37"/>
       <use xlink:href="#DejaVuSans-35" transform="translate(63.623047 0)"/>
      </g>
     </g>
    </g>
    <g id="xtick_5">
     <g id="line2d_5">
      <g>
       <use xlink:href="#mea58c04f21" x="202.37756" y="410.398125" style="stroke: #000000; stroke-width: 0.8"/>
      </g>
     </g>
     <g id="text_5">
      <!-- 100 -->
      <g transform="translate(192.83381 424.996562) scale(0.1 -0.1)">
       <defs>
        <path id="DejaVuSans-31" d="M 794 531 
L 1825 531 
L 1825 4091 
L 703 3866 
L 703 4441 
L 1819 4666 
L 2450 4666 
L 2450 531 
L 3481 531 
L 3481 0 
L 794 0 
L 794 531 
z
" transform="scale(0.015625)"/>
       </defs>
       <use xlink:href="#DejaVuSans-31"/>
       <use xlink:href="#DejaVuSans-30" transform="translate(63.623047 0)"/>
       <use xlink:href="#DejaVuSans-30" transform="translate(127.246094 0)"/>
      </g>
     </g>
    </g>
    <g id="xtick_6">
     <g id="line2d_6">
      <g>
       <use xlink:href="#mea58c04f21" x="239.946638" y="410.398125" style="stroke: #000000; stroke-width: 0.8"/>
      </g>
     </g>
     <g id="text_6">
      <!-- 125 -->
      <g transform="translate(230.402888 424.996562) scale(0.1 -0.1)">
       <use xlink:href="#DejaVuSans-31"/>
       <use xlink:href="#DejaVuSans-32" transform="translate(63.623047 0)"/>
       <use xlink:href="#DejaVuSans-35" transform="translate(127.246094 0)"/>
      </g>
     </g>
    </g>
    <g id="xtick_7">
     <g id="line2d_7">
      <g>
       <use xlink:href="#mea58c04f21" x="277.515717" y="410.398125" style="stroke: #000000; stroke-width: 0.8"/>
      </g>
     </g>
     <g id="text_7">
      <!-- 150 -->
      <g transform="translate(267.971967 424.996562) scale(0.1 -0.1)">
       <use xlink:href="#DejaVuSans-31"/>
       <use xlink:href="#DejaVuSans-35" transform="translate(63.623047 0)"/>
       <use xlink:href="#DejaVuSans-30" transform="translate(127.246094 0)"/>
      </g>
     </g>
    </g>
    <g id="xtick_8">
     <g id="line2d_8">
      <g>
       <use xlink:href="#mea58c04f21" x="315.084796" y="410.398125" style="stroke: #000000; stroke-width: 0.8"/>
      </g>
     </g>
     <g id="text_8">
      <!-- 175 -->
      <g transform="translate(305.541046 424.996562) scale(0.1 -0.1)">
       <use xlink:href="#DejaVuSans-31"/>
       <use xlink:href="#DejaVuSans-37" transform="translate(63.623047 0)"/>
       <use xlink:href="#DejaVuSans-35" transform="translate(127.246094 0)"/>
      </g>
     </g>
    </g>
    <g id="text_9">
     <!-- Position [micrometer] -->
     <g transform="translate(128.115625 438.674687) scale(0.1 -0.1)">
      <defs>
       <path id="DejaVuSans-50" d="M 1259 4147 
L 1259 2394 
L 2053 2394 
Q 2494 2394 2734 2622 
Q 2975 2850 2975 3272 
Q 2975 3691 2734 3919 
Q 2494 4147 2053 4147 
L 1259 4147 
z
M 628 4666 
L 2053 4666 
Q 2838 4666 3239 4311 
Q 3641 3956 3641 3272 
Q 3641 2581 3239 2228 
Q 2838 1875 2053 1875 
L 1259 1875 
L 1259 0 
L 628 0 
L 628 4666 
z
" transform="scale(0.015625)"/>
       <path id="DejaVuSans-6f" d="M 1959 3097 
Q 1497 3097 1228 2736 
Q 959 2375 959 1747 
Q 959 1119 1226 758 
Q 1494 397 1959 397 
Q 2419 397 2687 759 
Q 2956 1122 2956 1747 
Q 2956 2369 2687 2733 
Q 2419 3097 1959 3097 
z
M 1959 3584 
Q 2709 3584 3137 3096 
Q 3566 2609 3566 1747 
Q 3566 888 3137 398 
Q 2709 -91 1959 -91 
Q 1206 -91 779 398 
Q 353 888 353 1747 
Q 353 2609 779 3096 
Q 1206 3584 1959 3584 
z
" transform="scale(0.015625)"/>
       <path id="DejaVuSans-73" d="M 2834 3397 
L 2834 2853 
Q 2591 2978 2328 3040 
Q 2066 3103 1784 3103 
Q 1356 3103 1142 2972 
Q 928 2841 928 2578 
Q 928 2378 1081 2264 
Q 1234 2150 1697 2047 
L 1894 2003 
Q 2506 1872 2764 1633 
Q 3022 1394 3022 966 
Q 3022 478 2636 193 
Q 2250 -91 1575 -91 
Q 1294 -91 989 -36 
Q 684 19 347 128 
L 347 722 
Q 666 556 975 473 
Q 1284 391 1588 391 
Q 1994 391 2212 530 
Q 2431 669 2431 922 
Q 2431 1156 2273 1281 
Q 2116 1406 1581 1522 
L 1381 1569 
Q 847 1681 609 1914 
Q 372 2147 372 2553 
Q 372 3047 722 3315 
Q 1072 3584 1716 3584 
Q 2034 3584 2315 3537 
Q 2597 3491 2834 3397 
z
" transform="scale(0.015625)"/>
       <path id="DejaVuSans-69" d="M 603 3500 
L 1178 3500 
L 1178 0 
L 603 0 
L 603 3500 
z
M 603 4863 
L 1178 4863 
L 1178 4134 
L 603 4134 
L 603 4863 
z
" transform="scale(0.015625)"/>
       <path id="DejaVuSans-74" d="M 1172 4494 
L 1172 3500 
L 2356 3500 
L 2356 3053 
L 1172 3053 
L 1172 1153 
Q 1172 725 1289 603 
Q 1406 481 1766 481 
L 2356 481 
L 2356 0 
L 1766 0 
Q 1100 0 847 248 
Q 594 497 594 1153 
L 594 3053 
L 172 3053 
L 172 3500 
L 594 3500 
L 594 4494 
L 1172 4494 
z
" transform="scale(0.015625)"/>
       <path id="DejaVuSans-6e" d="M 3513 2113 
L 3513 0 
L 2938 0 
L 2938 2094 
Q 2938 2591 2744 2837 
Q 2550 3084 2163 3084 
Q 1697 3084 1428 2787 
Q 1159 2491 1159 1978 
L 1159 0 
L 581 0 
L 581 3500 
L 1159 3500 
L 1159 2956 
Q 1366 3272 1645 3428 
Q 1925 3584 2291 3584 
Q 2894 3584 3203 3211 
Q 3513 2838 3513 2113 
z
" transform="scale(0.015625)"/>
       <path id="DejaVuSans-20" transform="scale(0.015625)"/>
       <path id="DejaVuSans-5b" d="M 550 4863 
L 1875 4863 
L 1875 4416 
L 1125 4416 
L 1125 -397 
L 1875 -397 
L 1875 -844 
L 550 -844 
L 550 4863 
z
" transform="scale(0.015625)"/>
       <path id="DejaVuSans-6d" d="M 3328 2828 
Q 3544 3216 3844 3400 
Q 4144 3584 4550 3584 
Q 5097 3584 5394 3201 
Q 5691 2819 5691 2113 
L 5691 0 
L 5113 0 
L 5113 2094 
Q 5113 2597 4934 2840 
Q 4756 3084 4391 3084 
Q 3944 3084 3684 2787 
Q 3425 2491 3425 1978 
L 3425 0 
L 2847 0 
L 2847 2094 
Q 2847 2600 2669 2842 
Q 2491 3084 2119 3084 
Q 1678 3084 1418 2786 
Q 1159 2488 1159 1978 
L 1159 0 
L 581 0 
L 581 3500 
L 1159 3500 
L 1159 2956 
Q 1356 3278 1631 3431 
Q 1906 3584 2284 3584 
Q 2666 3584 2933 3390 
Q 3200 3197 3328 2828 
z
" transform="scale(0.015625)"/>
       <path id="DejaVuSans-63" d="M 3122 3366 
L 3122 2828 
Q 2878 2963 2633 3030 
Q 2388 3097 2138 3097 
Q 1578 3097 1268 2742 
Q 959 2388 959 1747 
Q 959 1106 1268 751 
Q 1578 397 2138 397 
Q 2388 397 2633 464 
Q 2878 531 3122 666 
L 3122 134 
Q 2881 22 2623 -34 
Q 2366 -91 2075 -91 
Q 1284 -91 818 406 
Q 353 903 353 1747 
Q 353 2603 823 3093 
Q 1294 3584 2113 3584 
Q 2378 3584 2631 3529 
Q 2884 3475 3122 3366 
z
" transform="scale(0.015625)"/>
       <path id="DejaVuSans-72" d="M 2631 2963 
Q 2534 3019 2420 3045 
Q 2306 3072 2169 3072 
Q 1681 3072 1420 2755 
Q 1159 2438 1159 1844 
L 1159 0 
L 581 0 
L 581 3500 
L 1159 3500 
L 1159 2956 
Q 1341 3275 1631 3429 
Q 1922 3584 2338 3584 
Q 2397 3584 2469 3576 
Q 2541 3569 2628 3553 
L 2631 2963 
z
" transform="scale(0.015625)"/>
       <path id="DejaVuSans-65" d="M 3597 1894 
L 3597 1613 
L 953 1613 
Q 991 1019 1311 708 
Q 1631 397 2203 397 
Q 2534 397 2845 478 
Q 3156 559 3463 722 
L 3463 178 
Q 3153 47 2828 -22 
Q 2503 -91 2169 -91 
Q 1331 -91 842 396 
Q 353 884 353 1716 
Q 353 2575 817 3079 
Q 1281 3584 2069 3584 
Q 2775 3584 3186 3129 
Q 3597 2675 3597 1894 
z
M 3022 2063 
Q 3016 2534 2758 2815 
Q 2500 3097 2075 3097 
Q 1594 3097 1305 2825 
Q 1016 2553 972 2059 
L 3022 2063 
z
" transform="scale(0.015625)"/>
       <path id="DejaVuSans-5d" d="M 1947 4863 
L 1947 -844 
L 622 -844 
L 622 -397 
L 1369 -397 
L 1369 4416 
L 622 4416 
L 622 4863 
L 1947 4863 
z
" transform="scale(0.015625)"/>
      </defs>
      <use xlink:href="#DejaVuSans-50"/>
      <use xlink:href="#DejaVuSans-6f" transform="translate(56.677734 0)"/>
      <use xlink:href="#DejaVuSans-73" transform="translate(117.859375 0)"/>
      <use xlink:href="#DejaVuSans-69" transform="translate(169.958984 0)"/>
      <use xlink:href="#DejaVuSans-74" transform="translate(197.742188 0)"/>
      <use xlink:href="#DejaVuSans-69" transform="translate(236.951172 0)"/>
      <use xlink:href="#DejaVuSans-6f" transform="translate(264.734375 0)"/>
      <use xlink:href="#DejaVuSans-6e" transform="translate(325.916016 0)"/>
      <use xlink:href="#DejaVuSans-20" transform="translate(389.294922 0)"/>
      <use xlink:href="#DejaVuSans-5b" transform="translate(421.082031 0)"/>
      <use xlink:href="#DejaVuSans-6d" transform="translate(460.095703 0)"/>
      <use xlink:href="#DejaVuSans-69" transform="translate(557.507812 0)"/>
      <use xlink:href="#DejaVuSans-63" transform="translate(585.291016 0)"/>
      <use xlink:href="#DejaVuSans-72" transform="translate(640.271484 0)"/>
      <use xlink:href="#DejaVuSans-6f" transform="translate(679.134766 0)"/>
      <use xlink:href="#DejaVuSans-6d" transform="translate(740.316406 0)"/>
      <use xlink:href="#DejaVuSans-65" transform="translate(837.728516 0)"/>
      <use xlink:href="#DejaVuSans-74" transform="translate(899.251953 0)"/>
      <use xlink:href="#DejaVuSans-65" transform="translate(938.460938 0)"/>
      <use xlink:href="#DejaVuSans-72" transform="translate(999.984375 0)"/>
      <use xlink:href="#DejaVuSans-5d" transform="translate(1041.097656 0)"/>
     </g>
    </g>
   </g>
   <g id="matplotlib.axis_2">
    <g id="ytick_1">
     <g id="line2d_9">
      <path d="M 42.620313 402.354939 
L 321.620313 402.354939 
" clip-path="url(#pe257f210d5)" style="fill: none; stroke: #b0b0b0; stroke-width: 0.8; stroke-linecap: square"/>
     </g>
     <g id="line2d_10">
      <defs>
       <path id="m9ddc54efb5" d="M 0 0 
L -3.5 0 
" style="stroke: #000000; stroke-width: 0.8"/>
      </defs>
      <g>
       <use xlink:href="#m9ddc54efb5" x="42.620313" y="402.354939" style="stroke: #000000; stroke-width: 0.8"/>
      </g>
     </g>
     <g id="text_10">
      <!-- −1 -->
      <g transform="translate(20.878125 406.154158) scale(0.1 -0.1)">
       <defs>
        <path id="DejaVuSans-2212" d="M 678 2272 
L 4684 2272 
L 4684 1741 
L 678 1741 
L 678 2272 
z
" transform="scale(0.015625)"/>
       </defs>
       <use xlink:href="#DejaVuSans-2212"/>
       <use xlink:href="#DejaVuSans-31" transform="translate(83.789062 0)"/>
      </g>
     </g>
    </g>
    <g id="ytick_2">
     <g id="line2d_11">
      <path d="M 42.620313 316.87164 
L 321.620313 316.87164 
" clip-path="url(#pe257f210d5)" style="fill: none; stroke: #b0b0b0; stroke-width: 0.8; stroke-linecap: square"/>
     </g>
     <g id="line2d_12">
      <g>
       <use xlink:href="#m9ddc54efb5" x="42.620313" y="316.87164" style="stroke: #000000; stroke-width: 0.8"/>
      </g>
     </g>
     <g id="text_11">
      <!-- 0 -->
      <g transform="translate(29.257813 320.670859) scale(0.1 -0.1)">
       <use xlink:href="#DejaVuSans-30"/>
      </g>
     </g>
    </g>
    <g id="ytick_3">
     <g id="line2d_13">
      <path d="M 42.620313 231.388341 
L 321.620313 231.388341 
" clip-path="url(#pe257f210d5)" style="fill: none; stroke: #b0b0b0; stroke-width: 0.8; stroke-linecap: square"/>
     </g>
     <g id="line2d_14">
      <g>
       <use xlink:href="#m9ddc54efb5" x="42.620313" y="231.388341" style="stroke: #000000; stroke-width: 0.8"/>
      </g>
     </g>
     <g id="text_12">
      <!-- 1 -->
      <g transform="translate(29.257813 235.18756) scale(0.1 -0.1)">
       <use xlink:href="#DejaVuSans-31"/>
      </g>
     </g>
    </g>
    <g id="ytick_4">
     <g id="line2d_15">
      <path d="M 42.620313 145.905042 
L 321.620313 145.905042 
" clip-path="url(#pe257f210d5)" style="fill: none; stroke: #b0b0b0; stroke-width: 0.8; stroke-linecap: square"/>
     </g>
     <g id="line2d_16">
      <g>
       <use xlink:href="#m9ddc54efb5" x="42.620313" y="145.905042" style="stroke: #000000; stroke-width: 0.8"/>
      </g>
     </g>
     <g id="text_13">
      <!-- 2 -->
      <g transform="translate(29.257813 149.70426) scale(0.1 -0.1)">
       <use xlink:href="#DejaVuSans-32"/>
      </g>
     </g>
    </g>
    <g id="ytick_5">
     <g id="line2d_17">
      <path d="M 42.620313 60.421742 
L 321.620313 60.421742 
" clip-path="url(#pe257f210d5)" style="fill: none; stroke: #b0b0b0; stroke-width: 0.8; stroke-linecap: square"/>
     </g>
     <g id="line2d_18">
      <g>
       <use xlink:href="#m9ddc54efb5" x="42.620313" y="60.421742" style="stroke: #000000; stroke-width: 0.8"/>
      </g>
     </g>
     <g id="text_14">
      <!-- 3 -->
      <g transform="translate(29.257813 64.220961) scale(0.1 -0.1)">
       <defs>
        <path id="DejaVuSans-33" d="M 2597 2516 
Q 3050 2419 3304 2112 
Q 3559 1806 3559 1356 
Q 3559 666 3084 287 
Q 2609 -91 1734 -91 
Q 1441 -91 1130 -33 
Q 819 25 488 141 
L 488 750 
Q 750 597 1062 519 
Q 1375 441 1716 441 
Q 2309 441 2620 675 
Q 2931 909 2931 1356 
Q 2931 1769 2642 2001 
Q 2353 2234 1838 2234 
L 1294 2234 
L 1294 2753 
L 1863 2753 
Q 2328 2753 2575 2939 
Q 2822 3125 2822 3475 
Q 2822 3834 2567 4026 
Q 2313 4219 1838 4219 
Q 1578 4219 1281 4162 
Q 984 4106 628 3988 
L 628 4550 
Q 988 4650 1302 4700 
Q 1616 4750 1894 4750 
Q 2613 4750 3031 4423 
Q 3450 4097 3450 3541 
Q 3450 3153 3228 2886 
Q 3006 2619 2597 2516 
z
" transform="scale(0.015625)"/>
       </defs>
       <use xlink:href="#DejaVuSans-33"/>
      </g>
     </g>
    </g>
    <g id="text_15">
     <!-- Species voltage [volts] -->
     <g transform="translate(14.798438 273.337812) rotate(-90) scale(0.1 -0.1)">
      <defs>
       <path id="DejaVuSans-53" d="M 3425 4513 
L 3425 3897 
Q 3066 4069 2747 4153 
Q 2428 4238 2131 4238 
Q 1616 4238 1336 4038 
Q 1056 3838 1056 3469 
Q 1056 3159 1242 3001 
Q 1428 2844 1947 2747 
L 2328 2669 
Q 3034 2534 3370 2195 
Q 3706 1856 3706 1288 
Q 3706 609 3251 259 
Q 2797 -91 1919 -91 
Q 1588 -91 1214 -16 
Q 841 59 441 206 
L 441 856 
Q 825 641 1194 531 
Q 1563 422 1919 422 
Q 2459 422 2753 634 
Q 3047 847 3047 1241 
Q 3047 1584 2836 1778 
Q 2625 1972 2144 2069 
L 1759 2144 
Q 1053 2284 737 2584 
Q 422 2884 422 3419 
Q 422 4038 858 4394 
Q 1294 4750 2059 4750 
Q 2388 4750 2728 4690 
Q 3069 4631 3425 4513 
z
" transform="scale(0.015625)"/>
       <path id="DejaVuSans-70" d="M 1159 525 
L 1159 -1331 
L 581 -1331 
L 581 3500 
L 1159 3500 
L 1159 2969 
Q 1341 3281 1617 3432 
Q 1894 3584 2278 3584 
Q 2916 3584 3314 3078 
Q 3713 2572 3713 1747 
Q 3713 922 3314 415 
Q 2916 -91 2278 -91 
Q 1894 -91 1617 61 
Q 1341 213 1159 525 
z
M 3116 1747 
Q 3116 2381 2855 2742 
Q 2594 3103 2138 3103 
Q 1681 3103 1420 2742 
Q 1159 2381 1159 1747 
Q 1159 1113 1420 752 
Q 1681 391 2138 391 
Q 2594 391 2855 752 
Q 3116 1113 3116 1747 
z
" transform="scale(0.015625)"/>
       <path id="DejaVuSans-76" d="M 191 3500 
L 800 3500 
L 1894 563 
L 2988 3500 
L 3597 3500 
L 2284 0 
L 1503 0 
L 191 3500 
z
" transform="scale(0.015625)"/>
       <path id="DejaVuSans-6c" d="M 603 4863 
L 1178 4863 
L 1178 0 
L 603 0 
L 603 4863 
z
" transform="scale(0.015625)"/>
       <path id="DejaVuSans-61" d="M 2194 1759 
Q 1497 1759 1228 1600 
Q 959 1441 959 1056 
Q 959 750 1161 570 
Q 1363 391 1709 391 
Q 2188 391 2477 730 
Q 2766 1069 2766 1631 
L 2766 1759 
L 2194 1759 
z
M 3341 1997 
L 3341 0 
L 2766 0 
L 2766 531 
Q 2569 213 2275 61 
Q 1981 -91 1556 -91 
Q 1019 -91 701 211 
Q 384 513 384 1019 
Q 384 1609 779 1909 
Q 1175 2209 1959 2209 
L 2766 2209 
L 2766 2266 
Q 2766 2663 2505 2880 
Q 2244 3097 1772 3097 
Q 1472 3097 1187 3025 
Q 903 2953 641 2809 
L 641 3341 
Q 956 3463 1253 3523 
Q 1550 3584 1831 3584 
Q 2591 3584 2966 3190 
Q 3341 2797 3341 1997 
z
" transform="scale(0.015625)"/>
       <path id="DejaVuSans-67" d="M 2906 1791 
Q 2906 2416 2648 2759 
Q 2391 3103 1925 3103 
Q 1463 3103 1205 2759 
Q 947 2416 947 1791 
Q 947 1169 1205 825 
Q 1463 481 1925 481 
Q 2391 481 2648 825 
Q 2906 1169 2906 1791 
z
M 3481 434 
Q 3481 -459 3084 -895 
Q 2688 -1331 1869 -1331 
Q 1566 -1331 1297 -1286 
Q 1028 -1241 775 -1147 
L 775 -588 
Q 1028 -725 1275 -790 
Q 1522 -856 1778 -856 
Q 2344 -856 2625 -561 
Q 2906 -266 2906 331 
L 2906 616 
Q 2728 306 2450 153 
Q 2172 0 1784 0 
Q 1141 0 747 490 
Q 353 981 353 1791 
Q 353 2603 747 3093 
Q 1141 3584 1784 3584 
Q 2172 3584 2450 3431 
Q 2728 3278 2906 2969 
L 2906 3500 
L 3481 3500 
L 3481 434 
z
" transform="scale(0.015625)"/>
      </defs>
      <use xlink:href="#DejaVuSans-53"/>
      <use xlink:href="#DejaVuSans-70" transform="translate(63.476562 0)"/>
      <use xlink:href="#DejaVuSans-65" transform="translate(126.953125 0)"/>
      <use xlink:href="#DejaVuSans-63" transform="translate(188.476562 0)"/>
      <use xlink:href="#DejaVuSans-69" transform="translate(243.457031 0)"/>
      <use xlink:href="#DejaVuSans-65" transform="translate(271.240234 0)"/>
      <use xlink:href="#DejaVuSans-73" transform="translate(332.763672 0)"/>
      <use xlink:href="#DejaVuSans-20" transform="translate(384.863281 0)"/>
      <use xlink:href="#DejaVuSans-76" transform="translate(416.650391 0)"/>
      <use xlink:href="#DejaVuSans-6f" transform="translate(475.830078 0)"/>
      <use xlink:href="#DejaVuSans-6c" transform="translate(537.011719 0)"/>
      <use xlink:href="#DejaVuSans-74" transform="translate(564.794922 0)"/>
      <use xlink:href="#DejaVuSans-61" transform="translate(604.003906 0)"/>
      <use xlink:href="#DejaVuSans-67" transform="translate(665.283203 0)"/>
      <use xlink:href="#DejaVuSans-65" transform="translate(728.759766 0)"/>
      <use xlink:href="#DejaVuSans-20" transform="translate(790.283203 0)"/>
      <use xlink:href="#DejaVuSans-5b" transform="translate(822.070312 0)"/>
      <use xlink:href="#DejaVuSans-76" transform="translate(861.083984 0)"/>
      <use xlink:href="#DejaVuSans-6f" transform="translate(920.263672 0)"/>
      <use xlink:href="#DejaVuSans-6c" transform="translate(981.445312 0)"/>
      <use xlink:href="#DejaVuSans-74" transform="translate(1009.228516 0)"/>
      <use xlink:href="#DejaVuSans-73" transform="translate(1048.4375 0)"/>
      <use xlink:href="#DejaVuSans-5d" transform="translate(1100.537109 0)"/>
     </g>
    </g>
   </g>
   <g id="line2d_19">
    <path d="M 201.010045 39.958125 
L 206.69049 39.967979 
L 212.370935 39.987586 
L 218.051379 40.01684 
L 223.731824 40.055629 
L 229.412269 40.103837 
L 235.092713 40.161342 
L 240.773158 40.228015 
L 246.453603 40.303726 
L 252.134047 40.388339 
L 257.814492 40.481718 
L 263.494937 40.583726 
L 269.175381 40.694226 
L 274.855826 40.813088 
L 280.536271 40.940185 
L 286.216716 41.075406 
L 291.89716 41.218652 
L 297.577605 41.369843 
L 303.25805 41.528923 
L 308.938494 41.695862 
" clip-path="url(#pe257f210d5)" style="fill: none; stroke: #1f77b4; stroke-width: 1.5; stroke-linecap: square"/>
   </g>
   <g id="line2d_20">
    <path d="M 55.302131 316.871723 
L 61.703902 316.871879 
L 68.105673 316.872028 
L 74.507444 316.872168 
L 80.909215 316.8723 
L 87.310986 316.872423 
L 93.712757 316.872537 
L 100.114528 316.872641 
L 106.516299 316.872736 
L 112.91807 316.87282 
L 119.319841 316.872893 
L 125.721612 316.872956 
L 132.123383 316.873009 
L 138.525154 316.873054 
L 144.926925 316.873091 
L 151.328696 316.87312 
L 157.730467 316.873143 
L 164.132238 316.87316 
L 170.534009 316.873172 
L 176.93578 316.873177 
" clip-path="url(#pe257f210d5)" style="fill: none; stroke: #1f77b4; stroke-width: 1.5; stroke-linecap: square"/>
   </g>
   <g id="line2d_21">
    <path d="M 55.302131 328.097566 
L 61.703902 328.110384 
L 68.105673 328.133366 
L 74.507444 328.161957 
L 80.909215 328.190807 
L 87.310986 328.215383 
L 93.712757 328.233484 
L 100.114528 328.245908 
L 106.516299 328.256432 
L 112.91807 328.27159 
L 119.319841 328.30069 
L 125.721612 328.357106 
L 132.123383 328.460208 
L 138.525154 328.639343 
L 144.926925 328.931439 
L 151.328696 329.373656 
L 157.730467 329.990457 
L 164.132238 330.77687 
L 170.534009 331.685315 
L 176.93578 332.634544 
" clip-path="url(#pe257f210d5)" style="fill: none; stroke: #ff7f0e; stroke-width: 1.5; stroke-linecap: square"/>
   </g>
   <g id="line2d_22">
    <path d="M 55.302131 328.254928 
L 61.703902 328.25619 
L 68.105673 328.258704 
L 74.507444 328.262907 
L 80.909215 328.269879 
L 87.310986 328.28218 
L 93.712757 328.306063 
L 100.114528 328.357368 
L 106.516299 328.476124 
L 112.91807 328.743933 
L 119.319841 329.231612 
L 125.721612 329.894683 
L 132.123383 330.627623 
L 138.525154 331.372295 
L 144.926925 332.098433 
L 151.328696 332.788455 
L 157.730467 333.431208 
L 164.132238 334.0187 
L 170.534009 334.546649 
L 176.93578 335.023242 
" clip-path="url(#pe257f210d5)" style="fill: none; stroke: #2ca02c; stroke-width: 1.5; stroke-linecap: square"/>
   </g>
   <g id="line2d_23">
    <path d="M 55.302131 332.794158 
L 61.703902 332.837989 
L 68.105673 332.927878 
L 74.507444 333.068627 
L 80.909215 333.268403 
L 87.310986 333.540257 
L 93.712757 333.90498 
L 100.114528 334.396781 
L 106.516299 335.074676 
L 112.91807 336.016343 
L 119.319841 337.167201 
L 125.721612 338.30313 
L 132.123383 339.314364 
L 138.525154 340.251157 
L 144.926925 341.15768 
L 151.328696 342.061589 
L 157.730467 342.982972 
L 164.132238 343.939392 
L 170.534009 344.948914 
L 176.93578 346.032614 
L 180.587494 346.580399 
L 181.489152 346.645329 
L 182.39081 346.710504 
L 183.292468 346.775928 
L 184.194126 346.841606 
L 185.095784 346.907545 
L 185.997441 346.973747 
L 186.899099 347.04022 
L 187.800757 347.106968 
L 188.702415 347.173997 
L 189.604073 347.241311 
L 190.505731 347.308917 
L 191.407389 347.37682 
L 192.309047 347.445026 
L 193.210705 347.513541 
L 194.112362 347.58237 
L 195.01402 347.65152 
L 195.915678 347.720997 
L 196.817336 347.790807 
L 197.718994 347.860955 
L 201.010045 348.24618 
L 206.69049 348.980885 
L 212.370935 349.713046 
L 218.051379 350.442978 
L 223.731824 351.170424 
L 229.412269 351.894518 
L 235.092713 352.613722 
L 240.773158 353.325738 
L 246.453603 354.027411 
L 252.134047 354.714608 
L 257.814492 355.382114 
L 263.494937 356.02354 
L 269.175381 356.631279 
L 274.855826 357.196552 
L 280.536271 357.709569 
L 286.216716 358.159859 
L 291.89716 358.536785 
L 297.577605 358.830244 
L 303.25805 359.031483 
L 308.938494 359.133939 
" clip-path="url(#pe257f210d5)" style="fill: none; stroke: #d62728; stroke-width: 1.5; stroke-linecap: square"/>
   </g>
   <g id="line2d_24">
    <path d="M 201.010045 351.928769 
L 206.69049 352.503763 
L 212.370935 353.078311 
L 218.051379 353.65233 
L 223.731824 354.225305 
L 229.412269 354.796259 
L 235.092713 355.363707 
L 240.773158 355.925602 
L 246.453603 356.479265 
L 252.134047 357.02132 
L 257.814492 357.547633 
L 263.494937 358.053265 
L 269.175381 358.532471 
L 274.855826 358.978745 
L 280.536271 359.384959 
L 286.216716 359.743596 
L 291.89716 360.04711 
L 297.577605 360.288395 
L 303.25805 360.461327 
L 308.938494 360.561304 
" clip-path="url(#pe257f210d5)" style="fill: none; stroke: #9467bd; stroke-width: 1.5; stroke-linecap: square"/>
   </g>
   <g id="line2d_25">
    <path d="M 201.010045 386.918176 
L 206.69049 387.300541 
L 212.370935 387.683607 
L 218.051379 388.067146 
L 223.731824 388.450555 
L 229.412269 388.832893 
L 235.092713 389.212876 
L 240.773158 389.588877 
L 246.453603 389.95891 
L 252.134047 390.320628 
L 257.814492 390.671312 
L 263.494937 391.007884 
L 269.175381 391.326933 
L 274.855826 391.624777 
L 280.536271 391.897556 
L 286.216716 392.141367 
L 291.89716 392.352441 
L 297.577605 392.527356 
L 303.25805 392.663265 
L 308.938494 392.758125 
" clip-path="url(#pe257f210d5)" style="fill: none; stroke: #8c564b; stroke-width: 1.5; stroke-linecap: square"/>
   </g>
   <g id="patch_3">
    <path d="M 42.620313 410.398125 
L 42.620313 22.318125 
" style="fill: none; stroke: #000000; stroke-width: 0.8; stroke-linejoin: miter; stroke-linecap: square"/>
   </g>
   <g id="patch_4">
    <path d="M 321.620313 410.398125 
L 321.620313 22.318125 
" style="fill: none; stroke: #000000; stroke-width: 0.8; stroke-linejoin: miter; stroke-linecap: square"/>
   </g>
   <g id="patch_5">
    <path d="M 42.620313 410.398125 
L 321.620313 410.398125 
" style="fill: none; stroke: #000000; stroke-width: 0.8; stroke-linejoin: miter; stroke-linecap: square"/>
   </g>
   <g id="patch_6">
    <path d="M 42.620313 22.318125 
L 321.620313 22.318125 
" style="fill: none; stroke: #000000; stroke-width: 0.8; stroke-linejoin: miter; stroke-linecap: square"/>
   </g>
   <g id="text_16">
    <!-- Battery Internal Voltages vs Axial Position (t = 1095.12 s) -->
    <g transform="translate(9.294063 16.318125) scale(0.12 -0.12)">
     <defs>
      <path id="DejaVuSans-42" d="M 1259 2228 
L 1259 519 
L 2272 519 
Q 2781 519 3026 730 
Q 3272 941 3272 1375 
Q 3272 1813 3026 2020 
Q 2781 2228 2272 2228 
L 1259 2228 
z
M 1259 4147 
L 1259 2741 
L 2194 2741 
Q 2656 2741 2882 2914 
Q 3109 3088 3109 3444 
Q 3109 3797 2882 3972 
Q 2656 4147 2194 4147 
L 1259 4147 
z
M 628 4666 
L 2241 4666 
Q 2963 4666 3353 4366 
Q 3744 4066 3744 3513 
Q 3744 3084 3544 2831 
Q 3344 2578 2956 2516 
Q 3422 2416 3680 2098 
Q 3938 1781 3938 1306 
Q 3938 681 3513 340 
Q 3088 0 2303 0 
L 628 0 
L 628 4666 
z
" transform="scale(0.015625)"/>
      <path id="DejaVuSans-79" d="M 2059 -325 
Q 1816 -950 1584 -1140 
Q 1353 -1331 966 -1331 
L 506 -1331 
L 506 -850 
L 844 -850 
Q 1081 -850 1212 -737 
Q 1344 -625 1503 -206 
L 1606 56 
L 191 3500 
L 800 3500 
L 1894 763 
L 2988 3500 
L 3597 3500 
L 2059 -325 
z
" transform="scale(0.015625)"/>
      <path id="DejaVuSans-49" d="M 628 4666 
L 1259 4666 
L 1259 0 
L 628 0 
L 628 4666 
z
" transform="scale(0.015625)"/>
      <path id="DejaVuSans-56" d="M 1831 0 
L 50 4666 
L 709 4666 
L 2188 738 
L 3669 4666 
L 4325 4666 
L 2547 0 
L 1831 0 
z
" transform="scale(0.015625)"/>
      <path id="DejaVuSans-41" d="M 2188 4044 
L 1331 1722 
L 3047 1722 
L 2188 4044 
z
M 1831 4666 
L 2547 4666 
L 4325 0 
L 3669 0 
L 3244 1197 
L 1141 1197 
L 716 0 
L 50 0 
L 1831 4666 
z
" transform="scale(0.015625)"/>
      <path id="DejaVuSans-78" d="M 3513 3500 
L 2247 1797 
L 3578 0 
L 2900 0 
L 1881 1375 
L 863 0 
L 184 0 
L 1544 1831 
L 300 3500 
L 978 3500 
L 1906 2253 
L 2834 3500 
L 3513 3500 
z
" transform="scale(0.015625)"/>
      <path id="DejaVuSans-28" d="M 1984 4856 
Q 1566 4138 1362 3434 
Q 1159 2731 1159 2009 
Q 1159 1288 1364 580 
Q 1569 -128 1984 -844 
L 1484 -844 
Q 1016 -109 783 600 
Q 550 1309 550 2009 
Q 550 2706 781 3412 
Q 1013 4119 1484 4856 
L 1984 4856 
z
" transform="scale(0.015625)"/>
      <path id="DejaVuSans-3d" d="M 678 2906 
L 4684 2906 
L 4684 2381 
L 678 2381 
L 678 2906 
z
M 678 1631 
L 4684 1631 
L 4684 1100 
L 678 1100 
L 678 1631 
z
" transform="scale(0.015625)"/>
      <path id="DejaVuSans-39" d="M 703 97 
L 703 672 
Q 941 559 1184 500 
Q 1428 441 1663 441 
Q 2288 441 2617 861 
Q 2947 1281 2994 2138 
Q 2813 1869 2534 1725 
Q 2256 1581 1919 1581 
Q 1219 1581 811 2004 
Q 403 2428 403 3163 
Q 403 3881 828 4315 
Q 1253 4750 1959 4750 
Q 2769 4750 3195 4129 
Q 3622 3509 3622 2328 
Q 3622 1225 3098 567 
Q 2575 -91 1691 -91 
Q 1453 -91 1209 -44 
Q 966 3 703 97 
z
M 1959 2075 
Q 2384 2075 2632 2365 
Q 2881 2656 2881 3163 
Q 2881 3666 2632 3958 
Q 2384 4250 1959 4250 
Q 1534 4250 1286 3958 
Q 1038 3666 1038 3163 
Q 1038 2656 1286 2365 
Q 1534 2075 1959 2075 
z
" transform="scale(0.015625)"/>
      <path id="DejaVuSans-2e" d="M 684 794 
L 1344 794 
L 1344 0 
L 684 0 
L 684 794 
z
" transform="scale(0.015625)"/>
      <path id="DejaVuSans-29" d="M 513 4856 
L 1013 4856 
Q 1481 4119 1714 3412 
Q 1947 2706 1947 2009 
Q 1947 1309 1714 600 
Q 1481 -109 1013 -844 
L 513 -844 
Q 928 -128 1133 580 
Q 1338 1288 1338 2009 
Q 1338 2731 1133 3434 
Q 928 4138 513 4856 
z
" transform="scale(0.015625)"/>
     </defs>
     <use xlink:href="#DejaVuSans-42"/>
     <use xlink:href="#DejaVuSans-61" transform="translate(68.603516 0)"/>
     <use xlink:href="#DejaVuSans-74" transform="translate(129.882812 0)"/>
     <use xlink:href="#DejaVuSans-74" transform="translate(169.091797 0)"/>
     <use xlink:href="#DejaVuSans-65" transform="translate(208.300781 0)"/>
     <use xlink:href="#DejaVuSans-72" transform="translate(269.824219 0)"/>
     <use xlink:href="#DejaVuSans-79" transform="translate(310.9375 0)"/>
     <use xlink:href="#DejaVuSans-20" transform="translate(370.117188 0)"/>
     <use xlink:href="#DejaVuSans-49" transform="translate(401.904297 0)"/>
     <use xlink:href="#DejaVuSans-6e" transform="translate(431.396484 0)"/>
     <use xlink:href="#DejaVuSans-74" transform="translate(494.775391 0)"/>
     <use xlink:href="#DejaVuSans-65" transform="translate(533.984375 0)"/>
     <use xlink:href="#DejaVuSans-72" transform="translate(595.507812 0)"/>
     <use xlink:href="#DejaVuSans-6e" transform="translate(634.871094 0)"/>
     <use xlink:href="#DejaVuSans-61" transform="translate(698.25 0)"/>
     <use xlink:href="#DejaVuSans-6c" transform="translate(759.529297 0)"/>
     <use xlink:href="#DejaVuSans-20" transform="translate(787.3125 0)"/>
     <use xlink:href="#DejaVuSans-56" transform="translate(819.099609 0)"/>
     <use xlink:href="#DejaVuSans-6f" transform="translate(879.757812 0)"/>
     <use xlink:href="#DejaVuSans-6c" transform="translate(940.939453 0)"/>
     <use xlink:href="#DejaVuSans-74" transform="translate(968.722656 0)"/>
     <use xlink:href="#DejaVuSans-61" transform="translate(1007.931641 0)"/>
     <use xlink:href="#DejaVuSans-67" transform="translate(1069.210938 0)"/>
     <use xlink:href="#DejaVuSans-65" transform="translate(1132.6875 0)"/>
     <use xlink:href="#DejaVuSans-73" transform="translate(1194.210938 0)"/>
     <use xlink:href="#DejaVuSans-20" transform="translate(1246.310547 0)"/>
     <use xlink:href="#DejaVuSans-76" transform="translate(1278.097656 0)"/>
     <use xlink:href="#DejaVuSans-73" transform="translate(1337.277344 0)"/>
     <use xlink:href="#DejaVuSans-20" transform="translate(1389.376953 0)"/>
     <use xlink:href="#DejaVuSans-41" transform="translate(1421.164062 0)"/>
     <use xlink:href="#DejaVuSans-78" transform="translate(1489.572266 0)"/>
     <use xlink:href="#DejaVuSans-69" transform="translate(1548.751953 0)"/>
     <use xlink:href="#DejaVuSans-61" transform="translate(1576.535156 0)"/>
     <use xlink:href="#DejaVuSans-6c" transform="translate(1637.814453 0)"/>
     <use xlink:href="#DejaVuSans-20" transform="translate(1665.597656 0)"/>
     <use xlink:href="#DejaVuSans-50" transform="translate(1697.384766 0)"/>
     <use xlink:href="#DejaVuSans-6f" transform="translate(1754.0625 0)"/>
     <use xlink:href="#DejaVuSans-73" transform="translate(1815.244141 0)"/>
     <use xlink:href="#DejaVuSans-69" transform="translate(1867.34375 0)"/>
     <use xlink:href="#DejaVuSans-74" transform="translate(1895.126953 0)"/>
     <use xlink:href="#DejaVuSans-69" transform="translate(1934.335938 0)"/>
     <use xlink:href="#DejaVuSans-6f" transform="translate(1962.119141 0)"/>
     <use xlink:href="#DejaVuSans-6e" transform="translate(2023.300781 0)"/>
     <use xlink:href="#DejaVuSans-20" transform="translate(2086.679688 0)"/>
     <use xlink:href="#DejaVuSans-28" transform="translate(2118.466797 0)"/>
     <use xlink:href="#DejaVuSans-74" transform="translate(2157.480469 0)"/>
     <use xlink:href="#DejaVuSans-20" transform="translate(2196.689453 0)"/>
     <use xlink:href="#DejaVuSans-3d" transform="translate(2228.476562 0)"/>
     <use xlink:href="#DejaVuSans-20" transform="translate(2312.265625 0)"/>
     <use xlink:href="#DejaVuSans-31" transform="translate(2344.052734 0)"/>
     <use xlink:href="#DejaVuSans-30" transform="translate(2407.675781 0)"/>
     <use xlink:href="#DejaVuSans-39" transform="translate(2471.298828 0)"/>
     <use xlink:href="#DejaVuSans-35" transform="translate(2534.921875 0)"/>
     <use xlink:href="#DejaVuSans-2e" transform="translate(2598.544922 0)"/>
     <use xlink:href="#DejaVuSans-31" transform="translate(2630.332031 0)"/>
     <use xlink:href="#DejaVuSans-32" transform="translate(2693.955078 0)"/>
     <use xlink:href="#DejaVuSans-20" transform="translate(2757.578125 0)"/>
     <use xlink:href="#DejaVuSans-73" transform="translate(2789.365234 0)"/>
     <use xlink:href="#DejaVuSans-29" transform="translate(2841.464844 0)"/>
    </g>
   </g>
   <g id="legend_1">
    <g id="patch_7">
     <path d="M 47.410313 216.358125 
L 167.710313 216.358125 
Q 169.710313 216.358125 169.710313 214.358125 
L 169.710313 112.589375 
Q 169.710313 110.589375 167.710313 110.589375 
L 47.410313 110.589375 
Q 45.410313 110.589375 45.410313 112.589375 
L 45.410313 214.358125 
Q 45.410313 216.358125 47.410313 216.358125 
z
" style="fill: #ffffff; opacity: 0.8; stroke: #cccccc; stroke-linejoin: miter"/>
    </g>
    <g id="line2d_26">
     <path d="M 49.410313 118.687812 
L 59.410313 118.687812 
L 69.410313 118.687812 
" style="fill: none; stroke: #1f77b4; stroke-width: 1.5; stroke-linecap: square"/>
    </g>
    <g id="text_17">
     <!-- $V_{\mathrm{e}^-}$ cathode -->
     <g transform="translate(77.410313 122.187812) scale(0.1 -0.1)">
      <defs>
       <path id="DejaVuSans-Oblique-56" d="M 1319 0 
L 500 4666 
L 1119 4666 
L 1797 653 
L 4063 4666 
L 4750 4666 
L 2053 0 
L 1319 0 
z
" transform="scale(0.015625)"/>
       <path id="DejaVuSans-68" d="M 3513 2113 
L 3513 0 
L 2938 0 
L 2938 2094 
Q 2938 2591 2744 2837 
Q 2550 3084 2163 3084 
Q 1697 3084 1428 2787 
Q 1159 2491 1159 1978 
L 1159 0 
L 581 0 
L 581 4863 
L 1159 4863 
L 1159 2956 
Q 1366 3272 1645 3428 
Q 1925 3584 2291 3584 
Q 2894 3584 3203 3211 
Q 3513 2838 3513 2113 
z
" transform="scale(0.015625)"/>
       <path id="DejaVuSans-64" d="M 2906 2969 
L 2906 4863 
L 3481 4863 
L 3481 0 
L 2906 0 
L 2906 525 
Q 2725 213 2448 61 
Q 2172 -91 1784 -91 
Q 1150 -91 751 415 
Q 353 922 353 1747 
Q 353 2572 751 3078 
Q 1150 3584 1784 3584 
Q 2172 3584 2448 3432 
Q 2725 3281 2906 2969 
z
M 947 1747 
Q 947 1113 1208 752 
Q 1469 391 1925 391 
Q 2381 391 2643 752 
Q 2906 1113 2906 1747 
Q 2906 2381 2643 2742 
Q 2381 3103 1925 3103 
Q 1469 3103 1208 2742 
Q 947 2381 947 1747 
z
" transform="scale(0.015625)"/>
      </defs>
      <use xlink:href="#DejaVuSans-Oblique-56" transform="translate(0 0.015625)"/>
      <use xlink:href="#DejaVuSans-65" transform="translate(68.408203 -16.390625) scale(0.7)"/>
      <use xlink:href="#DejaVuSans-2212" transform="translate(121.690918 10.40625) scale(0.49)"/>
      <use xlink:href="#DejaVuSans-20" transform="translate(176.942383 0.015625)"/>
      <use xlink:href="#DejaVuSans-63" transform="translate(208.729492 0.015625)"/>
      <use xlink:href="#DejaVuSans-61" transform="translate(263.709961 0.015625)"/>
      <use xlink:href="#DejaVuSans-74" transform="translate(324.989258 0.015625)"/>
      <use xlink:href="#DejaVuSans-68" transform="translate(364.198242 0.015625)"/>
      <use xlink:href="#DejaVuSans-6f" transform="translate(427.577148 0.015625)"/>
      <use xlink:href="#DejaVuSans-64" transform="translate(488.758789 0.015625)"/>
      <use xlink:href="#DejaVuSans-65" transform="translate(552.235352 0.015625)"/>
     </g>
    </g>
    <g id="line2d_27">
     <path d="M 49.410313 133.365937 
L 59.410313 133.365937 
L 69.410313 133.365937 
" style="fill: none; stroke: #1f77b4; stroke-width: 1.5; stroke-linecap: square"/>
    </g>
    <g id="text_18">
     <!-- $V_{\mathrm{e}^-}$ anode -->
     <g transform="translate(77.410313 136.865937) scale(0.1 -0.1)">
      <use xlink:href="#DejaVuSans-Oblique-56" transform="translate(0 0.015625)"/>
      <use xlink:href="#DejaVuSans-65" transform="translate(68.408203 -16.390625) scale(0.7)"/>
      <use xlink:href="#DejaVuSans-2212" transform="translate(121.690918 10.40625) scale(0.49)"/>
      <use xlink:href="#DejaVuSans-20" transform="translate(176.942383 0.015625)"/>
      <use xlink:href="#DejaVuSans-61" transform="translate(208.729492 0.015625)"/>
      <use xlink:href="#DejaVuSans-6e" transform="translate(270.008789 0.015625)"/>
      <use xlink:href="#DejaVuSans-6f" transform="translate(333.387695 0.015625)"/>
      <use xlink:href="#DejaVuSans-64" transform="translate(394.569336 0.015625)"/>
      <use xlink:href="#DejaVuSans-65" transform="translate(458.045898 0.015625)"/>
     </g>
    </g>
    <g id="line2d_28">
     <path d="M 49.410313 148.044062 
L 59.410313 148.044062 
L 69.410313 148.044062 
" style="fill: none; stroke: #ff7f0e; stroke-width: 1.5; stroke-linecap: square"/>
    </g>
    <g id="text_19">
     <!-- $V_{\mathrm{Li}^+}$ in core -->
     <g transform="translate(77.410313 151.544062) scale(0.1 -0.1)">
      <defs>
       <path id="DejaVuSans-4c" d="M 628 4666 
L 1259 4666 
L 1259 531 
L 3531 531 
L 3531 0 
L 628 0 
L 628 4666 
z
" transform="scale(0.015625)"/>
       <path id="DejaVuSans-2b" d="M 2944 4013 
L 2944 2272 
L 4684 2272 
L 4684 1741 
L 2944 1741 
L 2944 0 
L 2419 0 
L 2419 1741 
L 678 1741 
L 678 2272 
L 2419 2272 
L 2419 4013 
L 2944 4013 
z
" transform="scale(0.015625)"/>
      </defs>
      <use xlink:href="#DejaVuSans-Oblique-56" transform="translate(0 0.015625)"/>
      <use xlink:href="#DejaVuSans-4c" transform="translate(68.408203 -16.390625) scale(0.7)"/>
      <use xlink:href="#DejaVuSans-69" transform="translate(107.407227 -16.390625) scale(0.7)"/>
      <use xlink:href="#DejaVuSans-2b" transform="translate(137.071777 10.40625) scale(0.49)"/>
      <use xlink:href="#DejaVuSans-20" transform="translate(192.323242 0.015625)"/>
      <use xlink:href="#DejaVuSans-69" transform="translate(224.110352 0.015625)"/>
      <use xlink:href="#DejaVuSans-6e" transform="translate(251.893555 0.015625)"/>
      <use xlink:href="#DejaVuSans-20" transform="translate(315.272461 0.015625)"/>
      <use xlink:href="#DejaVuSans-63" transform="translate(347.05957 0.015625)"/>
      <use xlink:href="#DejaVuSans-6f" transform="translate(402.040039 0.015625)"/>
      <use xlink:href="#DejaVuSans-72" transform="translate(463.22168 0.015625)"/>
      <use xlink:href="#DejaVuSans-65" transform="translate(504.334961 0.015625)"/>
     </g>
    </g>
    <g id="line2d_29">
     <path d="M 49.410313 162.722187 
L 59.410313 162.722187 
L 69.410313 162.722187 
" style="fill: none; stroke: #2ca02c; stroke-width: 1.5; stroke-linecap: square"/>
    </g>
    <g id="text_20">
     <!-- $V_{\mathrm{Li}^+}$ at surface -->
     <g transform="translate(77.410313 166.222187) scale(0.1 -0.1)">
      <defs>
       <path id="DejaVuSans-75" d="M 544 1381 
L 544 3500 
L 1119 3500 
L 1119 1403 
Q 1119 906 1312 657 
Q 1506 409 1894 409 
Q 2359 409 2629 706 
Q 2900 1003 2900 1516 
L 2900 3500 
L 3475 3500 
L 3475 0 
L 2900 0 
L 2900 538 
Q 2691 219 2414 64 
Q 2138 -91 1772 -91 
Q 1169 -91 856 284 
Q 544 659 544 1381 
z
M 1991 3584 
L 1991 3584 
z
" transform="scale(0.015625)"/>
       <path id="DejaVuSans-66" d="M 2375 4863 
L 2375 4384 
L 1825 4384 
Q 1516 4384 1395 4259 
Q 1275 4134 1275 3809 
L 1275 3500 
L 2222 3500 
L 2222 3053 
L 1275 3053 
L 1275 0 
L 697 0 
L 697 3053 
L 147 3053 
L 147 3500 
L 697 3500 
L 697 3744 
Q 697 4328 969 4595 
Q 1241 4863 1831 4863 
L 2375 4863 
z
" transform="scale(0.015625)"/>
      </defs>
      <use xlink:href="#DejaVuSans-Oblique-56" transform="translate(0 0.015625)"/>
      <use xlink:href="#DejaVuSans-4c" transform="translate(68.408203 -16.390625) scale(0.7)"/>
      <use xlink:href="#DejaVuSans-69" transform="translate(107.407227 -16.390625) scale(0.7)"/>
      <use xlink:href="#DejaVuSans-2b" transform="translate(137.071777 10.40625) scale(0.49)"/>
      <use xlink:href="#DejaVuSans-20" transform="translate(192.323242 0.015625)"/>
      <use xlink:href="#DejaVuSans-61" transform="translate(224.110352 0.015625)"/>
      <use xlink:href="#DejaVuSans-74" transform="translate(285.389648 0.015625)"/>
      <use xlink:href="#DejaVuSans-20" transform="translate(324.598633 0.015625)"/>
      <use xlink:href="#DejaVuSans-73" transform="translate(356.385742 0.015625)"/>
      <use xlink:href="#DejaVuSans-75" transform="translate(408.485352 0.015625)"/>
      <use xlink:href="#DejaVuSans-72" transform="translate(471.864258 0.015625)"/>
      <use xlink:href="#DejaVuSans-66" transform="translate(512.977539 0.015625)"/>
      <use xlink:href="#DejaVuSans-61" transform="translate(548.182617 0.015625)"/>
      <use xlink:href="#DejaVuSans-63" transform="translate(609.461914 0.015625)"/>
      <use xlink:href="#DejaVuSans-65" transform="translate(664.442383 0.015625)"/>
     </g>
    </g>
    <g id="line2d_30">
     <path d="M 49.410313 177.401875 
L 59.410313 177.401875 
L 69.410313 177.401875 
" style="fill: none; stroke: #d62728; stroke-width: 1.5; stroke-linecap: square"/>
    </g>
    <g id="text_21">
     <!-- $V_{\mathrm{Li}^+}$ in electrolyte -->
     <g transform="translate(77.410313 180.901875) scale(0.1 -0.1)">
      <use xlink:href="#DejaVuSans-Oblique-56" transform="translate(0 0.015625)"/>
      <use xlink:href="#DejaVuSans-4c" transform="translate(68.408203 -16.390625) scale(0.7)"/>
      <use xlink:href="#DejaVuSans-69" transform="translate(107.407227 -16.390625) scale(0.7)"/>
      <use xlink:href="#DejaVuSans-2b" transform="translate(137.071777 10.40625) scale(0.49)"/>
      <use xlink:href="#DejaVuSans-20" transform="translate(192.323242 0.015625)"/>
      <use xlink:href="#DejaVuSans-69" transform="translate(224.110352 0.015625)"/>
      <use xlink:href="#DejaVuSans-6e" transform="translate(251.893555 0.015625)"/>
      <use xlink:href="#DejaVuSans-20" transform="translate(315.272461 0.015625)"/>
      <use xlink:href="#DejaVuSans-65" transform="translate(347.05957 0.015625)"/>
      <use xlink:href="#DejaVuSans-6c" transform="translate(408.583008 0.015625)"/>
      <use xlink:href="#DejaVuSans-65" transform="translate(436.366211 0.015625)"/>
      <use xlink:href="#DejaVuSans-63" transform="translate(497.889648 0.015625)"/>
      <use xlink:href="#DejaVuSans-74" transform="translate(552.870117 0.015625)"/>
      <use xlink:href="#DejaVuSans-72" transform="translate(592.079102 0.015625)"/>
      <use xlink:href="#DejaVuSans-6f" transform="translate(633.192383 0.015625)"/>
      <use xlink:href="#DejaVuSans-6c" transform="translate(694.374023 0.015625)"/>
      <use xlink:href="#DejaVuSans-79" transform="translate(722.157227 0.015625)"/>
      <use xlink:href="#DejaVuSans-74" transform="translate(781.336914 0.015625)"/>
      <use xlink:href="#DejaVuSans-65" transform="translate(820.545898 0.015625)"/>
     </g>
    </g>
    <g id="line2d_31">
     <path d="M 49.410313 192.100312 
L 59.410313 192.100312 
L 69.410313 192.100312 
" style="fill: none; stroke: #9467bd; stroke-width: 1.5; stroke-linecap: square"/>
    </g>
    <g id="text_22">
     <!-- $V_{\mathrm{Li}^+}$ at surface -->
     <g transform="translate(77.410313 195.600312) scale(0.1 -0.1)">
      <use xlink:href="#DejaVuSans-Oblique-56" transform="translate(0 0.015625)"/>
      <use xlink:href="#DejaVuSans-4c" transform="translate(68.408203 -16.390625) scale(0.7)"/>
      <use xlink:href="#DejaVuSans-69" transform="translate(107.407227 -16.390625) scale(0.7)"/>
      <use xlink:href="#DejaVuSans-2b" transform="translate(137.071777 10.40625) scale(0.49)"/>
      <use xlink:href="#DejaVuSans-20" transform="translate(192.323242 0.015625)"/>
      <use xlink:href="#DejaVuSans-61" transform="translate(224.110352 0.015625)"/>
      <use xlink:href="#DejaVuSans-74" transform="translate(285.389648 0.015625)"/>
      <use xlink:href="#DejaVuSans-20" transform="translate(324.598633 0.015625)"/>
      <use xlink:href="#DejaVuSans-73" transform="translate(356.385742 0.015625)"/>
      <use xlink:href="#DejaVuSans-75" transform="translate(408.485352 0.015625)"/>
      <use xlink:href="#DejaVuSans-72" transform="translate(471.864258 0.015625)"/>
      <use xlink:href="#DejaVuSans-66" transform="translate(512.977539 0.015625)"/>
      <use xlink:href="#DejaVuSans-61" transform="translate(548.182617 0.015625)"/>
      <use xlink:href="#DejaVuSans-63" transform="translate(609.461914 0.015625)"/>
      <use xlink:href="#DejaVuSans-65" transform="translate(664.442383 0.015625)"/>
     </g>
    </g>
    <g id="line2d_32">
     <path d="M 49.410313 206.778437 
L 59.410313 206.778437 
L 69.410313 206.778437 
" style="fill: none; stroke: #8c564b; stroke-width: 1.5; stroke-linecap: square"/>
    </g>
    <g id="text_23">
     <!-- $V_{\mathrm{Li}^+}$ in core -->
     <g transform="translate(77.410313 210.278437) scale(0.1 -0.1)">
      <use xlink:href="#DejaVuSans-Oblique-56" transform="translate(0 0.015625)"/>
      <use xlink:href="#DejaVuSans-4c" transform="translate(68.408203 -16.390625) scale(0.7)"/>
      <use xlink:href="#DejaVuSans-69" transform="translate(107.407227 -16.390625) scale(0.7)"/>
      <use xlink:href="#DejaVuSans-2b" transform="translate(137.071777 10.40625) scale(0.49)"/>
      <use xlink:href="#DejaVuSans-20" transform="translate(192.323242 0.015625)"/>
      <use xlink:href="#DejaVuSans-69" transform="translate(224.110352 0.015625)"/>
      <use xlink:href="#DejaVuSans-6e" transform="translate(251.893555 0.015625)"/>
      <use xlink:href="#DejaVuSans-20" transform="translate(315.272461 0.015625)"/>
      <use xlink:href="#DejaVuSans-63" transform="translate(347.05957 0.015625)"/>
      <use xlink:href="#DejaVuSans-6f" transform="translate(402.040039 0.015625)"/>
      <use xlink:href="#DejaVuSans-72" transform="translate(463.22168 0.015625)"/>
      <use xlink:href="#DejaVuSans-65" transform="translate(504.334961 0.015625)"/>
     </g>
    </g>
   </g>
  </g>
 </g>
 <defs>
  <clipPath id="pe257f210d5">
   <rect x="42.620313" y="22.318125" width="279" height="388.08"/>
  </clipPath>
 </defs>
</svg>
